<?xml version="1.0" encoding="iso-8859-1"?>
<!-- Uploaded to: SVG Repo, www.svgrepo.com, Generator: SVG Repo Mixer Tools -->
<svg height="800px" width="800px" version="1.1" id="Layer_1" xmlns="http://www.w3.org/2000/svg" xmlns:xlink="http://www.w3.org/1999/xlink" 
	 viewBox="0 0 511.613 511.613" xml:space="preserve">
<g>
	<path style="fill:#E6E7E8;" d="M511.613,0c-28.363,4.052-60.884,10.955-81.143,31.214L30.978,430.698l49.938,49.938L480.399,81.143
		C500.658,60.884,507.561,28.363,511.613,0"/>
	<g>
		<polygon style="fill:#B0B6BB;" points="243.205,218.471 187.027,199.748 255.688,131.078 324.348,137.328 		"/>
		<polygon style="fill:#B0B6BB;" points="293.142,268.408 311.865,324.587 380.526,255.926 374.285,187.265 		"/>
		<polygon style="fill:#B0B6BB;" points="143.333,318.344 68.431,293.38 99.636,262.165 180.788,280.888 		"/>
		<polygon style="fill:#B0B6BB;" points="193.269,368.281 218.234,443.183 249.448,411.977 230.725,330.825 		"/>
		<path style="fill:#B0B6BB;" d="M30.976,430.701L4.582,404.307c-6.109-6.109-6.109-16.013,0-22.122l7.071-7.071
			c4.193-4.184,10.39-5.65,16.013-3.778l47.007,15.669L30.976,430.701z"/>
		<path style="fill:#B0B6BB;" d="M80.913,480.637l26.394,26.394c6.109,6.109,16.013,6.109,22.122,0l7.071-7.071
			c4.184-4.193,5.65-10.39,3.778-16.013l-15.669-47.007L80.913,480.637z"/>
	</g>
	<polygon style="fill:#E6E7E8;" points="193.269,368.281 143.332,318.343 243.207,218.468 293.145,268.405 	"/>
	<path style="fill:#D75A4A;" d="M386.772,74.905l49.938,49.938l43.697-43.697c20.259-20.259,27.154-52.78,31.206-81.143
		c-28.363,4.052-60.884,10.946-81.143,31.206L386.772,74.905z"/>
	<g>
		<path style="fill:#B0B6BB;" d="M379.2,141.241c0,4.873-3.955,8.828-8.828,8.828c-4.873,0-8.828-3.955-8.828-8.828
			s3.955-8.828,8.828-8.828C375.245,132.414,379.2,136.369,379.2,141.241"/>
		<path style="fill:#B0B6BB;" d="M352.717,167.724c0,4.873-3.955,8.828-8.828,8.828c-4.873,0-8.828-3.955-8.828-8.828
			c0-4.873,3.955-8.828,8.828-8.828C348.762,158.897,352.717,162.851,352.717,167.724"/>
		<path style="fill:#B0B6BB;" d="M326.234,194.207c0,4.873-3.955,8.828-8.828,8.828c-4.873,0-8.828-3.955-8.828-8.828
			c0-4.873,3.955-8.828,8.828-8.828C322.279,185.379,326.234,189.334,326.234,194.207"/>
		<path style="fill:#B0B6BB;" d="M149.682,370.759c0,4.873-3.955,8.828-8.828,8.828c-4.873,0-8.828-3.955-8.828-8.828
			c0-4.873,3.955-8.828,8.828-8.828C145.728,361.931,149.682,365.886,149.682,370.759"/>
		<path style="fill:#B0B6BB;" d="M123.2,397.241c0,4.873-3.955,8.828-8.828,8.828s-8.828-3.955-8.828-8.828
			c0-4.873,3.955-8.828,8.828-8.828S123.2,392.369,123.2,397.241"/>
		<path style="fill:#B0B6BB;" d="M96.717,423.724c0,4.873-3.955,8.828-8.828,8.828s-8.828-3.955-8.828-8.828
			c0-4.873,3.955-8.828,8.828-8.828S96.717,418.851,96.717,423.724"/>
	</g>
</g>
</svg>