<?xml version="1.0" encoding="UTF-8" standalone="no"?>
<svg
   xmlns:dc="http://purl.org/dc/elements/1.1/"
   xmlns:cc="http://creativecommons.org/ns#"
   xmlns:rdf="http://www.w3.org/1999/02/22-rdf-syntax-ns#"
   xmlns:svg="http://www.w3.org/2000/svg"
   xmlns="http://www.w3.org/2000/svg"
   xmlns:sodipodi="http://sodipodi.sourceforge.net/DTD/sodipodi-0.dtd"
   xmlns:inkscape="http://www.inkscape.org/namespaces/inkscape"
   id="svg2"
   height="3539pt"
   width="1498pt"
   version="1.1"
   viewBox="0 0 1498 3539"
   sodipodi:docname="rocket-with-flame.svg"
   inkscape:version="0.92.5 (2060ec1f9f, 2020-04-08)"
   inkscape:export-filename="/home/greg/Gits/Computing-Magic/Modules/Module-1c/Creating-Games/rocket-with-flame.png"
   inkscape:export-xdpi="4.8600001"
   inkscape:export-ydpi="4.8600001">
  <metadata
     id="metadata23">
    <rdf:RDF>
      <cc:Work
         rdf:about="">
        <dc:format>image/svg+xml</dc:format>
        <dc:type
           rdf:resource="http://purl.org/dc/dcmitype/StillImage" />
        <dc:title />
      </cc:Work>
    </rdf:RDF>
  </metadata>
  <defs
     id="defs21" />
  <sodipodi:namedview
     pagecolor="#ffffff"
     bordercolor="#666666"
     borderopacity="1"
     objecttolerance="10"
     gridtolerance="10"
     guidetolerance="10"
     inkscape:pageopacity="0"
     inkscape:pageshadow="2"
     inkscape:window-width="803"
     inkscape:window-height="836"
     id="namedview19"
     showgrid="false"
     inkscape:zoom="0.050014128"
     inkscape:cx="1078.6441"
     inkscape:cy="2359.3333"
     inkscape:window-x="2172"
     inkscape:window-y="528"
     inkscape:window-maximized="0"
     inkscape:current-layer="svg2" />
  <g
     id="g4213"
     transform="translate(-2400)">
    <g
       id="g5">
      <path
         id="rect4210"
         d="m3148.6 17.75c-149.86 115.73-278.91 261.77-364.4 431.04-88.39 169.96-134.07 359.1-154.65 548.7-10.88 96.92-15.67 194.42-18.33 291.82-4.88 135.67 13.539 271.06 38.239 404.24 1.39 8.9 4.76 17.77 3.45 26.92-5.96-6.14-4.4503-18.55-8.4703-24.05-78.16 81-143.9 175.13-188 279-31.54 77.44-55.54 161.04-47.18 245.39 6.11 109.8 14.7 219.59 30.45 328.51 6.95 42.61 13.54 85.72 28.62 126.38 5.58 13.4 11.71 29.801 27.45 33.541 25.23 8.31 61.11 8.08 75.02-18.55 81.89-127.02 160.64-258.07 243.25-385.15 22.08 57.82 40.5 117.32 63.48 174.91 31.84 16.96 66.92 27.641 99.98 41.291-50.01 63.64-73.53 145.04-84.88 223.93-17.08 143.08 12.259 288.05 64.109 422.61 49.15 124.8 115.47 243.65 192.47 352.6 1.57 0.24 3.5206 0.3303 4.2906-1.3797 61.89-82.63 116.02-171.2 160.92-264.13 65.01-134.65 113.71-282.04 109.65-433.42-1.79-107.1-35.781-214.68-100.93-300.12 32.99-12.74 66.781-24.259 98.611-40.059 24.04-56.18 41.37-115.22 63.18-172.3 0.99 0.77 2.0703 1.4791 3.0203 2.3891 80.32 126.09 159.14 254.4 239.32 379.82 6.91 15.39 26.219 21.47 41.919 22.28 17.92-1.82 41.88-1.8391 51.02-20.789 13.13-24.1 19.151-51.261 25.141-77.841 27.54-140.29 35.76-283.39 44.22-425.78 0.05-34.78-5.4106-69.33-12.841-103.22-35.09-148.78-119.94-282.91-225.77-391.37 23.92-134.96 43.95-271.93 37.37-409.3-5.11-198.69-20.901-399.29-75.691-591.26-24.34-84.28-55.729-166.84-96.519-244.55-86.82-169.43-214.94-317.06-366.02-431.86-0.38-0.06-1.13-0.18062-1.5-0.24062z"
         fill="#85aab2" />
      <path
         id="path4"
         d="m3148.6 17.75c-149.86 115.73-278.91 261.77-364.4 431.04 106.45 59.35 226.91 94.109 348.77 99.059 5.65-0.7 11.61-0.27031 17.1-2.0703-0.04-175.93-0.1103-351.86 0.03-527.79-0.38-0.06-1.13-0.18062-1.5-0.24062zm-0.875 1603.2c-0.8142 0.015-1.4631 0.9428-2.075 1.7609-55.51 173.99-71.34 357.87-77.52 539.48-0.99 126.67-1.11 254.34 20.4 379.57 11.45 58.66 21.34 122.13 58.67 170.57 2.9-4.46 1.32-10.379 1.9-15.259-0.22-358.49 0.08-716.99-0.15-1075.5-0.45-0.4656-0.8549-0.6475-1.225-0.6406zm-503.29 75.441c-78.16 81-143.9 175.13-188 279-31.54 77.44-55.54 161.04-47.18 245.39 6.11 109.8 14.7 219.59 30.45 328.51 6.95 42.61 13.54 85.72 28.62 126.38 5.58 13.4 11.71 29.801 27.45 33.541 25.23 8.31 61.11 8.08 75.02-18.55 3.83-36.56 13.41-72.23 24.85-107.07 44.52-127.06 113.53-244.15 189.33-354.82 3.04-6.87 3.6097 3.17 6.2797 5.05-45.6-171.26-93.02-342.05-138.35-513.38-5.96-6.14-4.4503-18.55-8.4703-24.05zm-50.644 148.29c4.286-0.1669 8.406 2.9638 8.4141 7.6844 3.66 22.72-2.7803 45.159-7.6203 67.169-11.4 43.77-26.559 86.711-46.759 127.23-17.25 36.34-30.141 74.64-48.541 110.43-3.14 5.34-9.9891 17.199-17.039 10.639-16.92-33.47-12.431-73.07-3.7109-108.35 15.36-59.76 41.07-116.42 70.55-170.44 11.78-16.13 23.691-34.13 41.761-43.7 0.9581-0.4106 1.9563-0.6255 2.9453-0.6641z"
         fill="#e23525" />
      <path
         id="path6"
         d="m3150.1 17.991c-0.14 175.93-0.07 351.86-0.03 527.79-5.49 1.8-11.45 1.3703-17.1 2.0703 1.24 0.05 2.4994 0.12 3.7594 0.2 132.45 5.24 265.93-29.73 379.39-98.2-86.8-169.43-214.9-317.06-366-431.86zm-0.091 1596.3c-0.51 0.25-1.5291 0.7594-2.0391 1.0094-1.02 2.38-1.5503 4.9309-2.3203 7.4109 0.89-1.19 1.86-2.6103 3.3-1.1203 0.23 358.49-0.07 716.99 0.15 1075.5-0.58 4.88 1 10.799-1.9 15.259 0.12 0.61 0.3691 1.8306 0.4891 2.4406 2.29 0.73 3.5106-1.1206 4.5906-2.7906 35-49.45 46.219-110.81 57.359-169.15 20.52-128.4 22.89-258.97 20.3-388.67-6.13-181.92-23.34-365.92-79.93-539.87zm500.95 80.639c-33.82 180.55-83.929 357.64-139.11 532.71 49.51 71.79 95.03 146.46 134.02 224.5 37.25 75.73 70.63 155.15 81.4 239.51 6.91 15.39 26.219 21.47 41.919 22.28 17.92-1.82 41.88-1.8391 51.02-20.789 13.13-24.1 19.151-51.261 25.141-77.841 27.54-140.29 35.76-283.39 44.22-425.78 0.05-34.78-5.4106-69.33-12.841-103.22-35.09-148.78-119.94-282.91-225.77-391.37z"
         fill="#c62c24" />
    </g>
    <path
       id="path8"
       d="m2784.2 448.79c-88.39 169.96-134.07 359.1-154.65 548.7-10.88 96.92-15.67 194.42-18.33 291.82-4.88 135.67 13.539 271.06 38.239 404.24 1.39 8.9 4.76 17.77 3.45 26.92 45.33 171.33 92.75 342.12 138.35 513.38 6.83 24.12 13.971 48.191 22.791 71.691 22.08 57.82 40.5 117.32 63.48 174.91 31.84 16.96 66.92 27.641 99.98 41.291 27.9 8.71 56.491 15.609 85.491 19.419 8.32 0.72 17.93 5.1712 25.53 0.6312-21.51-125.23-21.39-252.9-20.4-379.57 6.18-181.61 22.01-365.49 77.52-539.48 0.77-2.48 1.3003-5.0309 2.3203-7.4109 2.52-130.81 0.3094-262.94 1.0594-394.25-80.41-2.55-154.31-47.679-203.42-109.66-70.8-89.7-70.1-226.85 2.4-315.4 47.51-60.97 123.67-98.281 201.02-98.091 0.32-49.58-0.7603-99.199 0.5797-148.76-4.28-0.62-8.63-0.73-12.9-1.1-1.26-0.08-2.5194-0.15-3.7594-0.2-121.86-4.95-242.32-39.709-348.77-99.059zm354.06 381.54c-1.2495-0.005-2.5129 0.0648-3.7875 0.21248-26.94 0.72-44.701 34.499-28.881 56.939 13.67 24.22 53.531 21.8 64.481-3.4297 13.172-22.904-6.4053-53.62-31.812-53.722zm-78.838 72.827c-1.2397 0.0162-2.5062 0.12184-3.8 0.32496-41.03 8.92-60.67 75.5-24.9 100.93 36.49 12.41 62.069-32.7 59.259-64.15 0.3375-17.334-11.964-37.348-30.559-37.105z"
       fill="#f9f9f9" />
    <path
       id="path10"
       d="m3136.7 548.05c132.45 5.24 265.93-29.73 379.39-98.2 40.79 77.71 72.18 160.27 96.52 244.55 54.79 191.97 70.58 392.57 75.69 591.26 6.58 137.37-13.45 274.34-37.37 409.3-33.82 180.55-83.93 357.64-139.11 532.71-8.97 27.26-18.2 54.45-26.92 81.8-21.81 57.08-39.14 116.12-63.18 172.3-31.83 15.8-65.62 27.32-98.61 40.06-27.5 7.61-55.15 14.93-83.43 19.06-9.99 0.31-20.26 4.38-30.07 1.97 20.52-128.4 22.89-258.97 20.3-388.67-6.13-181.92-23.34-365.92-79.93-539.87-0.51 0.25-1.53 0.76-2.04 1.01 2.52-130.81 0.31-262.94 1.06-394.25 79.6 4.51 159.58-31.59 210.01-93.07 63.99-75.33 77.45-188.74 32.99-276.99-45.23-89.49-141.43-154.21-242.98-153.11 0.32-49.58-0.76-99.2 0.58-148.76-4.28-0.62-8.63-0.73-12.9-1.1z"
       fill="#e8e8e8" />
    <path
       id="path12"
       d="m2948 796c47.51-60.97 123.67-98.28 201.02-98.09 101.55-1.1 197.75 63.62 242.98 153.11 44.46 88.25 31 201.66-32.99 276.99-50.43 61.48-130.41 97.58-210.01 93.07-80.41-2.55-154.31-47.68-203.42-109.66-70.79-89.68-70.07-226.87 2.42-315.42m126.04-23.95c-68.94 27.95-118.84 97.59-122.03 172.06-2.43 47.87 11.91 97.6 43.41 134.15 40.03 53.28 110.5 82.03 176.64 73.76 50.69-5.26 98.84-31.49 130.92-71.05 37.11-44.73 53.29-106.33 41.44-163.4-9.82-52.93-42.86-101.06-88.53-129.45-52.23-35.65-123.65-40.62-181.85-16.07z"
       fill="#3a3a3a" />
    <path
       id="path16"
       d="m3016 873.99c50.31-76.93 152.17-112.98 239.9-85.87 45.67 28.39 78.71 76.52 88.53 129.45 11.85 57.07-4.33 118.67-41.44 163.4-32.08 39.56-80.23 65.79-130.92 71.05-66.14 8.27-136.61-20.48-176.64-73.76-26.65-66.08-20.46-145.23 20.57-204.27m118.45-43.45c-26.94 0.72-44.7 34.5-28.88 56.94 13.67 24.22 53.53 21.8 64.48-3.43 13.82-24.03-8.41-56.66-35.6-53.51m-78.85 72.94c-41.03 8.92-60.67 75.5-24.9 100.93 36.49 12.41 62.07-32.7 59.26-64.15 0.36-18.49-13.66-40.03-34.36-36.78z"
       fill="#b6e2ef" />
    <path
       id="path30"
       d="m2590.8 1845.4c5.11-2.19 11.35 1.21 11.36 7.02 3.66 22.72-2.78 45.16-7.62 67.17-11.4 43.77-26.56 86.71-46.76 127.23-17.25 36.34-30.14 74.64-48.54 110.43-3.14 5.34-9.99 17.2-17.04 10.64-16.92-33.47-12.43-73.07-3.71-108.35 15.36-59.76 41.07-116.42 70.55-170.44 11.78-16.13 23.69-34.13 41.76-43.7z"
       fill="#f45349" />
    <path
       id="path32"
       d="m2786.8 2226.4c-0.5227 0-1.1275 0.6559-1.8875 2.3734-75.8 110.67-144.81 227.76-189.33 354.82-11.44 34.84-21.02 70.51-24.85 107.07 81.89-127.02 160.64-258.07 243.25-385.15-8.82-23.5-15.961-47.571-22.791-71.691-2.0025-1.41-2.8242-7.4098-4.3922-7.4234zm724.98 1.2437c-8.97 27.26-18.2 54.45-26.92 81.8 0.99 0.77 2.0703 1.4791 3.0203 2.3891 80.32 126.09 159.14 254.4 239.32 379.82-10.77-84.36-44.15-163.78-81.4-239.51-38.99-78.04-84.51-152.71-134.02-224.5z"
       fill="#9e1e1d" />
    <path
       id="path36"
       d="m2977.5 2521.7c27.9 8.71 56.49 15.61 85.49 19.42-34.07 54.88-45.82 120.72-44.75 184.55 4.76 132.73 60.08 258.05 129.52 369.16 0.67 1.11 1.36 2.26 2.04 3.46-1.71 140.79-0.5 281.7-0.6 422.55-77-108.95-143.32-227.8-192.47-352.6-51.85-134.56-81.19-279.53-64.11-422.61 11.35-78.89 34.87-160.29 84.88-223.93z"
       fill="#eb9d21" />
    <path
       id="path38"
       d="m3239.7 2540.9c28.28-4.13 55.93-11.45 83.43-19.06 65.15 85.44 99.14 193.02 100.93 300.12 4.06 151.38-44.64 298.77-109.65 433.42-44.9 92.93-99.03 181.5-160.92 264.13-0.77 1.71-2.72 1.62-4.29 1.38 0.1-140.85-1.11-281.76 0.6-422.55 63.97-94.26 114.87-199.85 133.59-312.95 14.75-83.21 3.43-173.02-43.69-244.49z"
       fill="#d3891e" />
    <path
       id="path40"
       d="m3063 2541.2c8.32 0.72 17.93 5.17 25.53 0.63 11.45 58.66 21.34 122.13 58.67 170.57 0.12 0.61 0.37 1.83 0.49 2.44 0.62 126.67 0.46 253.38 0.08 380.07-69.44-111.11-124.76-236.43-129.52-369.16-1.07-63.83 10.68-129.67 44.75-184.55z"
       fill="#faee1e" />
    <path
       id="path42"
       d="m3209.6 2542.9c9.81 2.41 20.08-1.66 30.07-1.97 47.12 71.47 58.44 161.28 43.69 244.49-18.72 113.1-69.62 218.69-133.59 312.95-0.68-1.2-1.37-2.35-2.04-3.46 0.38-126.69 0.54-253.4-0.08-380.07 2.29 0.73 3.51-1.12 4.59-2.79 35-49.45 46.22-110.81 57.36-169.15z"
       fill="#decf1e" />
  </g>
</svg>
