<?xml version="1.0" encoding="UTF-8" standalone="no"?>
<svg xmlns:rdf="http://www.w3.org/1999/02/22-rdf-syntax-ns#" xmlns="http://www.w3.org/2000/svg" height="623" viewBox="0 0 321 623" width="321" version="1.1" xmlns:cc="http://creativecommons.org/ns#" xmlns:dc="http://purl.org/dc/elements/1.1/">
<path d="m209.74 622.12c-8.7566-1.3082-10.385-6.9907-3.0196-10.538 3.4366-1.6549 3.6118-1.9238 1.9228-2.9501-8.2927-5.039-9.2503-7.5243-10.113-26.244-0.76597-16.627-1.0347-17.327-5.9683-15.543-2.0869 0.75462-5.329 0.99681-8.2494 0.61623-3.4485-0.4494-5.661-0.17997-7.8113 0.95127-3.8091 2.0039-6.7971 2.0054-10.665 0.005-2.2038-1.1396-3.3702-1.2801-4.1503-0.5-1.4454 1.4454-10.253 1.3871-13.001-0.0862-1.21-0.65-4.89-1.28-8.19-1.41-8.43-0.33-14.48-1.33-18.15-2.99-1.73-0.79-3.83-1.43-4.67-1.43-7.3221 0-23.161-13.702-21.336-18.458 0.297-0.77397-1.0719-4.5489-3.042-8.3887-2.6123-5.0916-3.7588-8.8319-4.2353-13.817-0.66582-6.9666-3.3255-12.616-7.8394-16.651-7.1992-6.4359-25.367 12.262-42.982 44.236-3.214 5.84-9.181 14.08-10.191 14.08-0.42599 0-0.77307 4.8375-0.7713 10.75 0.0038 12.558-1.3856 18.53-5.1033 21.935-1.4743 1.3501-3.3933 3.0984-4.2644 3.885-0.87114 0.78664-2.1086 1.4302-2.75 1.4302-1.5185 0-1.4982 2.2679 0.03389 3.8 1.9844 1.9844 3.8 1.3632 3.8-1.3 0-2.8335 2.4342-3.3654 5.4176-1.1839 5.3748 3.9302-2.4897 9.1285-12.395 8.1932-9.8484-0.93-15.073-9.51-5.7916-9.51 2.038 0 3.5936-2.8367 2.1117-3.8509-2.6795-1.8339-5.4032-11.622-6.3577-22.847-0.5519-6.49-1.2065-14.05-1.4546-16.8-0.59514-6.59 0.9078-21.11 3.9859-38.5 1.306-7.3777 4.298-12.878 8.6644-15.928 4.2632-2.9782 4.9966-5.2962 7.3004-23.072 0.81976-6.325 1.9731-14.2 2.5629-17.5 0.58986-3.3 1.4918-8.7 2.0044-12 0.51254-3.3 1.4067-8.475 1.987-11.5 1.2179-6.3488 2.7661-15.242 3.9507-22.694 0.4541-2.8564 1.098-5.6341 1.4308-6.1726 0.33283-0.53853 1.0587-3.3709 1.6131-6.2941 0.55438-2.9232 2.3888-9.8205 4.0765-15.327 1.6877-5.5068 4.6123-15.187 6.4991-21.512 5.2755-17.685 13.357-42.003 15.599-46.938 3.7374-8.2271 4.6102-11.762 4.6775-18.945 0.03684-3.9347 0.49685-7.9573 1.0223-8.939 0.5254-0.98173 0.61391-2.3373 0.19668-3.0124-0.41723-0.67509-0.44474-3.5758-0.06114-6.4461s0.78094-9.2687 0.88297-14.219c0.10203-4.95 0.61095-9.4275 1.1309-9.95 0.52-0.52 0.945-3.08 0.945-5.68 0-8.0685 5.4268-45.183 7.0321-48.094 0.52225-0.94696 1.2083-4.097 1.5245-7 0.31621-2.903 0.83077-5.9532 1.1435-6.7782 0.31269-0.825 0.93886-3.3 1.3915-5.5 3.3293-16.182 14.817-53.507 21.015-68.282 2.1416-5.1049 3.8937-9.8818 3.8937-10.615 0-0.73339 0.9-2.4776 2-3.876s2.01-3.1466 2.0222-3.8849c0.01-0.746 0.9-2.475 1.98-3.85 1.0755-1.375 1.9655-3.4574 1.9778-4.6276 0.0122-1.1702 0.63854-2.639 1.3918-3.2642 0.75326-0.62515 2.176-3.2677 3.1615-5.8724 0.98558-2.6047 2.4184-5.7062 3.1841-6.8922s1.3526-4.336 1.3043-7c-0.282-15.545 1.1774-22.162 4.6116-20.91 3.5357 1.2894 12.339-4.8168 12.386-8.5912 0.0187-1.5034 7.7083-14.9 10.901-18.991 1.137-1.457 3.5263-5.507 5.3096-9 5.0673-9.9253 7.8757-12.252 9.3148-7.718 0.37233 1.1731 2.5862 4.6606 4.9198 7.75 4.0716 5.3904 6.7176 9.7518 12.508 20.617 2.1156 3.9696 5.4079 9.4129 8.6919 14.37 0.13498 0.20376 2.3557 0.76473 4.935 1.2466 6.856 1.2808 7.4028 2.0475 7.4028 10.38 0 9.38 0.23206 10.021 14.494 40.003 2.3546 4.95 4.5983 10.125 4.9861 11.5 0.71071 2.5203 3.0685 8.1288 6.516 15.5 2.18 4.661 4.2714 10.235 7.5027 19.995 1.2756 3.853 3.2016 9.4804 4.2799 12.505 1.0783 3.025 2.4628 7.3 3.0766 9.5 0.61385 2.2 2.0225 6.8868 3.1304 10.415 1.1078 3.5283 2.0143 7.0964 2.0143 7.929 0 0.83261 0.42415 2.8958 0.94256 4.5848 1.9538 6.3658 6.0374 25.354 7.0047 32.571 0.55287 4.125 1.4841 9.75 2.0694 12.5 2.4805 11.654 4.9173 44.713 5.8229 79 0.58661 22.208 0.88921 25.503 2.7093 29.5 1.1269 2.475 4.6668 12.6 7.8663 22.5 3.1996 9.9 6.2148 18.9 6.7006 20 1.9947 4.5171 5.1053 14.485 6.8654 22 2.3419 9.999 4.2269 17.379 7.5354 29.5 2.6989 9.888 5.2876 21.746 6.1869 28.34 0.50541 3.706 0.63539 3.819 3.7257 3.2393 9.5636-1.7941 12.885 13.267 13.983 63.407 0.35788 16.336-0.2646 19.08-4.8944 21.573-3.1129 1.6764-6.5183 7.1411-6.5183 10.46 0 1.7942 4.9697 1.0101 7.1-1.1202 2.559-2.559 4.4517-1.2342 3.523 2.4661-1.49 5.87-26.64 4.63-26.64-1.32 0-1.857 3.4638-5.3881 6.25-6.3715 2.0276-0.71561 2.383-3.6804 0.44113-3.6804-3.5923 0-4.704-2.4354-5.2496-11.5-0.50064-8.3179-0.82213-9.4092-4.2416-14.399-2.035-2.9694-4.719-6.9069-5.9645-8.75-1.25-1.84-2.65-3.35-3.12-3.35-0.46891 0-2.1144-1.9125-3.6565-4.25-6.22-9.42-19.73-22.75-23.06-22.75-1.01 0-3.4 9.74-3.4 13.85 0 3.3684-3.3885 9.2801-7.2842 12.708-2.872 2.5273-3.601 4.003-4.1988 8.5-0.39787 2.993-2.252 8.6915-4.1202 12.663-1.87 3.97-3.4 8.62-3.4 10.32 0 1.7018-0.45834 3.9506-1.0185 4.9973-0.56019 1.0467-1.2495 11.93-1.5318 24.184-0.58512 25.398-1.4611 29.534-6.7522 31.885-1.9333 0.85892-3.3611 2.358-3.7109 3.8961-0.36646 1.6114-1.3742 2.6163-2.8352 2.8271-3.079 0.44433-2.1613 2.5948 1.2799 2.9994 1.7778 0.20901 3.5696-0.41813 4.9799-1.743 2.422-2.2753 4.5888-1.2868 4.5888 2.0935 0 4.0944-7.8615 6.3443-17.262 4.9399zm9.448-21.903c3.4191-3.4191 5.4853-55.057 2.5293-63.214-0.49832-1.375-1.0732-4.075-1.2774-6-1.4-13.194-5.3747-25.365-6.8346-20.928-1.9209 5.838-3.3774 15.495-2.4971 16.556 0.70549 0.85006 0.48119 1.5027-0.754 2.194-1.5347 0.85886-1.5783 1.2007-0.3432 2.6889 1.2311 1.4833 1.1969 1.8644-0.26244 2.9316-1.31 0.95787-1.4131 1.491-0.47061 2.4334 0.94246 0.94246 0.88006 1.4168-0.2848 2.1652-1.2352 0.79361-1.259 1.1084-0.13839 1.8312 1.1004 0.70971 1.1203 1.3081 0.1066 3.2022-0.9171 1.7136-0.9444 2.4301-0.10325 2.7105 1.9575 0.6525 1.254 2.9501-1.1066 3.6143-2.1007 0.59107-2.1339 0.72223-0.5 1.9769 2.1463 1.6481 2.2392 2.6233 0.25 2.6233-0.825 0-1.5 0.3949-1.5 0.87756 0 0.48265 0.675 1.4378 1.5 2.1224 0.825 0.68469 1.5 1.6398 1.5 2.1224 0 0.48266-0.675 0.87756-1.5 0.87756s-1.5 0.40186-1.5 0.89301c0 0.49116 0.675 1.152 1.5 1.4686 2.0802 0.79825 1.8872 3.6313-0.25 3.6702-1.5619 0.0284-1.5351 0.1958 0.25 1.5578 1.8737 1.4296 1.8895 1.5886 0.25 2.5179-2.1407 1.2134-2.3128 3.8926-0.25 3.8926 0.825 0 1.5 0.45 1.5 1s-0.675 1-1.5 1c-2.1792 0-1.8383 1.518 0.75 3.3397l2.25 1.5837-2.25 0.65493c-2.47 0.72-3.07 2.42-0.86 2.42 2.3552 0 2.869 3.1187 0.61112 3.7092-2.4694 0.64575-2.5685 2.1534-0.25413 3.8633 1.3492 0.99676 1.4792 1.5677 0.5678 2.4924-2.329 2.3631 2.3358 6.8879 6.5454 6.349 1.9698-0.2522 3.9153-0.79235 4.3232-1.2003zm-198.52-10.97c2.771-6.6142 2.0482-67.068-0.82306-68.843-0.467-0.29-0.85-1.61-0.85-2.92 0-6.1516-3.4276-9.3705-4.5477-4.2709-0.38864 1.7694-1.2119 4.0332-1.8295 5.0305-0.86516 1.3972-0.80497 2.0112 0.26226 2.6753 1.0985 0.68362 0.92618 1.1076-0.83258 2.0489-1.9098 1.0221-2.0113 1.3494-0.73096 2.3575 1.8595 1.4641 1.1029 7.6706-0.93507 7.6706-1.9693 0-1.7198 2.703 0.3635 3.938 1.6078 0.95313 1.5474 1.1959-0.74348 2.9876-2.2196 1.736-2.302 2.0237-0.75 2.6192 2.2212 0.85235 2.2188 2.348-0.00653 4.1576-1.2734 1.0355-1.4096 1.5648-0.5 1.9436 1.7619 0.7337 1.5521 2.4018-0.5 3.9746-1.529 1.1718-1.5605 1.4661-0.25 2.3297 1.2761 0.84093 1.2996 1.3116 0.15783 3.153-1.118 1.803-1.1194 2.3022-0.00836 2.9889 1.0623 0.65651 1.081 1.0771 0.09217 2.066-2.6089 2.6089-0.94555 22.592 2.2918 27.533 2.6381 4.0262 8.179 3.2385 10.14-1.4414zm155.87-25.87c4.6-3.01 3.43-7.38-1.97-7.38-6.44 0-9.57 1.44-9.57 4.39 0 4.0323 7.1268 5.8815 11.535 2.9931zm-17.038-2.376c0.92-2.89-0.18-4-3.98-4-4.19 0-6.52 0.86-6.52 2.41 0 3.8481 9.3322 5.2723 10.497 1.602zm33.468 0.0568c1.2811-2.3938 1.3426-5.7577 0.1191-6.5139-2.4628-1.5221-9.0839 3.2299-9.0839 6.5196 0 2.7922 7.47 2.7875 8.9648-0.006zm-156.97-17.58c20.567-36.938 39.341-51.488 51.792-40.14 1.9152 1.7454 2.6122 1.8894 4.2364 0.87504 2.6066-1.6278 5.0327-1.529 8.8176 0.35914 4.5308 2.2602 3.9397 2.724-2.8464 2.2331-7.2662-0.52559-8.1376 1.2071-1.5 2.9824 4.5472 1.2162 6.137 3.2112 2.559 3.2112-8.9828 0 1.6564 5.057 16.56 7.8711 26.031 4.9154 32.725 4.7946 30.673-0.55348-0.49778-1.2972 1.6233-1.4498 16.068-1.156 10.799 0.2196 16.525-0.0127 16.309-0.66157-0.19779-0.59346-6.6633-1.1118-15.904-1.2749-13.259-0.2341-15.663-0.51508-16.191-1.8931-0.87026-2.2678-1.1867-2.2226 10.426-1.4923 5.775 0.36316 12.75 0.3935 15.5 0.0674 3.2483-0.38518 3.949-0.65815 2-0.77917-14.906-0.92551-28.875-2.1692-29.316-2.6101-2.1656-2.1656 3.8925-3.4375 13.566-2.848 7.4069 0.45143 10.25 0.30648 10.25-0.52258-0.01-0.67-1.63-1.15-3.86-1.15-7.5 0-19.15-1.31-19.15-2.15 0-0.47 4.95-0.85 11-0.85 6.6667 0 11-0.39394 11-1 0-0.59505-3.7696-1-9.3089-1-8.8939 0-14.45-1.5749-12.485-3.5394 0.7894-0.7894 19.659-0.66211 20.959 0.14139 0.45921 0.28381 0.83493-0.18554 0.83493-1.043 0-1.2849-1.4504-1.5614-8.25-1.5727-10.259-0.017-13.245-0.68556-11.649-2.6085 0.82-0.99 3.78-1.38 10.52-1.38 5.59 0 9.38-0.4 9.38-1 0-0.60317-4.1667-1-10.5-1-6.1974 0-10.5-0.40197-10.5-0.98095 0-1.6171 4.7437-2.3064 11.001-1.5984 4.0861 0.46229 6.5161 0.27328 7.943-0.61783 3.8468-2.4024 2.0684-3.0251-7.6076-2.6637-7.1052 0.26536-9.7746 0.03-10.083-0.88909-0.56618-1.6856 14.157-2.2932 17.997-0.74261 1.3371 0.53988 1.75 0.20859 1.75-1.4042 0-1.6813-0.55959-2.0728-2.75-1.9241-6.9822 0.47401-13.199-0.27079-14.688-1.7597-2.67-2.67-0.8-3.42 8.5-3.42 5.29 0 8.94-0.41 8.94-1 0-0.59649-3.8333-1-9.5-1-5.225 0-9.5-0.3949-9.5-0.87756 0-2.4899 3.2936-3.3624 11.007-2.9159 4.3963 0.25449 7.9932 0.13962 7.9932-0.25528 0-1.2121-4.1742-1.9233-11.372-1.9376-5.9945-0.0119-6.7134-0.20526-5.6276-1.5136 0.73424-0.88471 2.7328-1.4477 4.8724-1.3726 7.54 0.26 12.13-0.16 12.13-1.13 0-0.59259-3.6667-1-9-1-5.4782 0-9-0.40099-9-1.0248 0-1.8013 4.3122-2.6958 11-2.2819 8.789 0.54398 5.8107-1.3458-4.1533-2.6353-4.04-0.52-9.83-1.39-12.85-1.92-10.829-1.9062-17.022-1.9659-17.982-0.17332-1.262 2.358-1.6445 24.405-0.67964 39.174 0.85143 13.033 0.43957 14.881-2.7908 12.519-1.5473-1.1314-1.7639-3.4632-1.8973-20.418-0.0917-11.653-0.55548-19.546-1.1856-20.176-1.0716-1.0713 0.32039-14.469 1.7274-16.626 0.80282-1.2306 3.2982-1.0531 14.308 1.0174 9.3335 1.7553 15.13 1.9524 16 0.54389 0.36074-0.58369 6.0301-1 13.618-1 8.412 0 12.782-0.35292 12.382-1-0.35619-0.57633-5.677-1-12.559-1-11.175 0-12.503-0.31256-11.691-2.75 0.32424-0.97273 0.58904-0.99872 11.559-1.1346 5.9242-0.0734 9.0843-0.47896 8.691-1.1154-0.34141-0.55241-4.8437-1-10.059-1-7.72 0-9.44-0.27-9.44-1.5 0-1.25 2-1.5 12-1.5 7.3333 0 12-0.38889 12-1 0-0.6065-4.4269-1.006-11.25-1.0153-12.384-0.0169-15.02-0.74902-12.712-3.53 1.2297-1.4816 2.7047-1.6109 11.589-1.0158 6.1626 0.4128 10.413 0.30553 10.77-0.27182 0.91569-1.4816-3.7838-2.2581-12.536-2.0712-7.9226 0.16912-10.789-0.78486-9.3501-3.1124 0.5104-0.82585 3.9925-1.1171 11.363-0.95045 12.802 0.28949 13.413 0.2395 12.627-1.0331-0.34554-0.5591-5.1112-1.0068-10.809-1.0153-10.213-0.0154-13.544-0.7959-12.26-2.8729 0.44-0.7 4.68-1.11 11.63-1.11 6.63 0 10.94-0.39 10.94-1 0-0.60317-4.1667-1-10.5-1-9.8333 0-10.5-0.12698-10.5-2 0-2.1932 0.45963-2.2609 13.652-2.0107 4.1184 0.0781 7.4309-0.31507 7.809-0.92683 0.45-0.72-2.56-1.06-9.43-1.06-8.1721 0-10.203-0.29337-10.683-1.5431-0.91618-2.3875-0.13089-2.6261 9.6211-2.9231 11.639-0.35443 12.298-1.0574 1.8112-1.932-4.5457-0.37909-8.6952-1.1196-9.2211-1.6455-1.961-1.961 1.035-2.7758 7.6307-2.0755 3.9167 0.41586 7.6452 0.29895 9-0.28221 1.8594-0.79764 0.64615-1.105-6.187-1.5676-8.2993-0.56176-11-1.2938-11-2.9816 0-1.4786 4.4788-2.0113 9.8169-1.1674 3.8301 0.60546 5.664 0.47398 6.9439-0.49781 1.5093-1.146 1.0122-1.3266-3.7608-1.366-6.8506-0.0566-10-0.86519-10-2.5674 0-1.7523 3.1753-2.6704 8.3064-2.4018 5.7784 0.30258 6.9104 0.11085 6.1936-1.049-0.33992-0.55-3.179-1.0069-6.309-1.0153-3.13-0.008-6.366-0.45842-7.191-1-2.6872-1.764 0.96476-3.0586 7.2294-2.5627 3.1512 0.24943 5.9598 0.0809 6.2412-0.37461 0.54316-0.87885-5.0212-2.2506-9.8824-2.4362-1.6014-0.0612-3.0913-0.64322-3.3108-1.2935-0.66643-1.9744 2.9888-3.1833 7.2623-2.4018 4.4203 0.80831 6.7787 0.40857 5.9074-1.0013-0.31-0.51-2.76-0.92-5.45-0.92-4.9806 0-7.3575-1.5153-4.8781-3.11 0.75797-0.4875 3.2906-0.61109 5.6281-0.27465 2.8218 0.40614 4.25 0.23749 4.25-0.50185 0-0.67-1.99-1.11-5-1.11-4.3333 0-5-0.26667-5-2 0-1.7949 0.66667-2 6.5-2 3.6667 0 6.5-0.4359 6.5-1 0-0.5569-2.6911-1-6.0733-1-8.183 0-8.5453-3.3052-0.41769-3.81 7.2299-0.44905 8.1767-2.19 1.191-2.19-5.9226 0-6.8095-0.74761-4.1007-3.4564 1.2279-1.2279 1.3328-1.9205 0.45144-2.9824-1.7298-2.0843 0.24695-2.789 5.5797-1.9893 3.702 0.55515 4.5337 0.41766 4.1689-0.68917-0.28006-0.84969-2.2566-1.5002-5.1276-1.6875-3.31-0.22-4.67-0.74-4.67-1.79 0-1.0628 0.97075-1.4112 3.4647-1.2432 4.7556 0.32027 5.5562-0.88854 1.1375-1.7175-1.98-0.37-3.6-1.02-3.6-1.44 0-1.6267 3.016-3.1534 5.6098-2.8396 1.5414 0.18645 2.8976-0.21201 3.1363-0.9215 0.28455-0.84569-0.73843-1.25-3.1628-1.25-2.91 0-3.58-0.37-3.58-2 0-1.5556 0.66667-2 3-2 1.65 0 3-0.45 3-1s-1.125-1-2.5-1c-1.8333 0-2.5-0.53333-2.5-2 0-1.5074 0.67727-2.0078 2.75-2.0318 2.5909-0.03 2.6415-0.11395 0.87457-1.452-2.3766-1.7997-1.4397-4.4939 1.594-4.5839l2.2814-0.0677-2.25-1.0851c-2.55-1.23-2.98-2.78-0.77-2.78 1.1056 0 1.3247-0.75141 0.875-3-0.36584-1.8292-0.18486-3 0.46373-3 0.58505 0 1.3611-1.9832 1.7246-4.4071 2.7362-18.246 10.33-11.952 14.366 11.907 1.0009 5.9161 3.7426 20.147 5.1054 26.5 0.92328 4.304 1.7864 11.476 4.0316 33.5 0.56069 5.5 1.4698 14.275 2.0202 19.5 0.55042 5.225 1.1724 12.875 1.3823 17 0.20982 4.125 1.0821 14.25 1.9383 22.5 0.85625 8.25 1.5704 18.636 1.5871 23.081 0.0247 6.5959 0.48884 8.9844 2.5261 13 2.8665 5.6502 3.0469 7.4628 1.1164 11.219-2.8096 5.4669-1.9055 21.192 1.42 24.7 1.5641 1.65 3.7527 5.1306 4.8637 7.7348 2.2183 5.1999 2.0472 5.1748 10.027 1.4718 6.4604-2.9979 11.648-8.5786 12.366-13.305 0.32643-2.1461 1.2949-8.3629 2.1521-13.815 2.0551-13.071 1.3305-21.495-1.0374-12.061-0.72316 2.8813-4.116 5.1616-5.5485 3.7291-0.57307-0.57307-0.55333-1.92 0.0514-3.5107 0.66924-1.7602 0.62096-3.5353-0.15182-5.5827-2.3418-6.2042 3.3519-8.5206 5.9291-2.4122 2.3301 5.5228 2.9266 2.9082 4.2776-18.75 0.6347-10.175 1.5626-24.35 2.062-31.5 0.91236-13.062 2.523-39.598 3.5054-57.75 2.0946-38.705 1.3506-62.427-1.8411-58.699-2.9254 3.4166-7.2376 0.65952-4.878-3.1189 1.6141-2.5846 1.496-4.6009-0.31016-5.294-2.1335-0.81871-1.8578-4.3765 0.43426-5.6032 2.5882-1.3852 2.6818-1.3637 5.0268 1.1534l2.039 2.1886v-4.8418c0-4.3752-1.4337-19.208-3.9663-41.035-1.7036-14.682-4.1543-29.87-5.7227-35.464-0.85359-3.0447-1.915-7.7859-2.3586-10.536-1.1041-6.8443-3.4967-16.827-7.9091-33-1.3391-4.9082-6.0782-19.627-8.0492-25-5.17-14.11-10.42-27.32-12.1-30.45-1.04-1.94-1.89-3.91-1.89-4.38 0-0.4714-0.9-2.0012-2-3.3997-1.1-1.3984-2-3.478-2-4.6213 0-2.405-10.01-22.649-11.2-22.649-1.0702 0-1.0164 2.3637 0.0808 3.55 1.7196 1.8592 2.479 8.9917 0.80975 7.6064-1.45-1.204-1.92-2.234-5.96-13.156-1.11-3.025-2.64-6.918-3.38-8.651s-1.35-3.589-1.35-4.124c0-0.5351-1.2375-3.0876-2.75-5.6723-1.5125-2.5846-3.266-5.6154-3.8966-6.7351-1.9539-3.469-7.5109-7.971-9.0907-7.3648-1.1011 0.42254-1.3003 0.11433-0.76991-1.1913 2.3982-5.9037 2.3901-7.247-0.0613-10.16-1.34-1.59-2.43-3.751-2.43-4.802s-1.12-3.436-2.5-5.3-2.5-3.976-2.5-4.694-0.48-1.306-1.06-1.306c-1.2797 0-0.45754 6.1664 1.2438 9.329 0.64233 1.194 1.2144 4.7938 1.2713 7.9995 0.0879 4.9544 0.4719 6.1065 2.5601 7.6816 2.7543 2.0776 2.7219 2.1534-1.6647 3.8976-6.75 2.682-17.35 24.526-17.35 35.738 0 3.956-2.4 15.354-3.23 15.354-0.77 0-0.94-3.721-1.16-24.5-0.1-10.429-0.68-13.5-2.54-13.5-1.3795 0-2.1554 6.1873-0.95699 7.6313 0.84923 1.0233 0.72336 1.4958-0.52617 1.9753-1.0369 0.39791-1.431 1.2965-1.0688 2.4376 0.35306 1.1124-0.0743 2.17-1.1115 2.7504-1.0919 0.61106-1.7234 2.3093-1.7938 4.8242-0.10491 3.7446-0.24146 3.8922-3.8804 4.1929l-3.7717 0.31166 0.64948-4.0617c0.58-3.642 0.43-4.061-1.41-4.061-1.6752 0-2.0373 0.60281-1.9519 3.25 0.0577 1.7875-0.25685 5.1625-0.6989 7.5-0.86225 4.5594 0.31579 5.7586 1.9648 2 1.3082-2.9819 5.9871-3.1773 5.9871-0.25 0 1.1 0.32527 2.4997 0.72281 3.1105 0.98 1.508-0.08 2.39-2.89 2.39-1.28 0-2.33 0.45-2.33 1s0.9 1 2 1c3.1029 0 2.3562 1.9788-1 2.65-2.7178 0.54357-4.3933 3.35-2 3.35 0.55 0 1 0.45 1 1s-1.8 1-4 1-4 0.45-4 1 1.3234 1 2.941 1c1.6175 0 3.2191 0.45 3.559 1 0.35052 0.56716-0.48962 1-1.941 1-3.1116 0-3.4197 1.7343-0.38735 2.1804 4.3113 0.63439 2.9315 2.5482-2.3415 3.2477-5.9659 0.79141-5.0002 2.5303 1.4198 2.5566 2.0625 0.008 3.75 0.42576 3.75 0.92741 0 1.1002-7.5256 2.4991-8.8942 1.6533-0.53218-0.32891-1.2503-0.14067-1.5957 0.4183-0.35982 0.5822 0.41265 1.0163 1.8085 1.0163 2.5292 0 5.1564 2.1917 4.0061 3.342-0.3619 0.36189-2.683 0.65799-5.158 0.65799-4.8656 0-5.137 0.77515-0.56189 1.6048 5.2569 0.95326 4.4728 2.7974-1.1003 2.5879-1.9275-0.0725-3.5045 0.30455-3.5045 0.8378s0.92958 0.96955 2.0657 0.96955c6.1161 0 7.742 3.9576 1.6843 4.0997-5.0553 0.11857-1.7076 1.6256 4 1.8006 5.2539 0.16114 3.7278 1.8013-2.5 2.6869-3.9745 0.56517-4.9008 0.93005-3 1.1816 3.5025 0.46359 3.5025 1.5477 0 2.9317-2.3981 0.94762-2.4768 1.1003-0.61481 1.193 1.939 0.0966 9.5433 2.9211 8.3648 3.1069-0.275 0.0434-2.9153 0.26382-5.8674 0.48989-6.4128 0.49109-7.6092 1.2642-3.2923 2.1276 5.49 1.1 3.43 2.38-3.84 2.38-8.0877 0-9.405 1.5144-1.9411 2.2316 6.9154 0.66448 8.9847 2.7684 2.7229 2.7684-2.54 0-5.3678 0.28762-6.2838 0.63916-2.651 1.0173 0.28301 2.3276 5.2521 2.3455 5.4711 0.0197 5.4711 1.6242 0 2.8494l-4.25 0.95176 3.691 0.10709c6.5947 0.19134 3.928 4.1071-2.797 4.1071-1.42 0-2.2433 0.43471-1.8939 1 0.33992 0.55 2.6165 1 5.059 1s4.441 0.45 4.441 1c0 0.57143-3 1-7 1s-7 0.42857-7 1c0 0.55 1.125 1 2.5 1s2.5 0.45 2.5 1-0.45 1-1 1-1 0.675-1 1.5 0.8632 1.5 1.9182 1.5c2.8291 0 5.1496 1.0813 4.517 2.1048-0.3 0.5-2.55 0.9-4.99 0.9s-4.44 0.45-4.44 1 1.575 1 3.5 1 3.5 0.45 3.5 1-0.8449 1-1.8776 1c-3.0884 0-4.9514 2.9705-2.2981 3.6643 2.7616 0.72219 1.806 2.3357-1.3833 2.3357-4.8798 0-2.6138 2.701 2.8044 3.3426 5.979 0.70812 10.758-2.2248 8.7055-5.3426-0.86307-1.3111-1.1144-1.2848-1.9956 0.20847-1.04 1.75-3.96 1.41-3.96-0.47 0-2.21 5.17-7.74 7.22-7.74 5.8305 0 7.6974 7.5654 3.189 12.923l-2.5889 3.0767-11.661 0.0153c-10.523 0.0138-15.837 0.8903-13.518 2.2293 0.47122 0.27205 4.6818 0.4836 9.3568 0.47012 4.675-0.0135 9.5125 0.3005 10.75 0.69775 5.1526 1.654 1.5429 2.596-10.5 2.7398-15.074 0.18008-14.904 0.16814-15.846 1.1104-0.405 0.41 1.424 0.74 4.065 0.74 5.746 0 17.532 2.05 17.532 3.06 0 1.3501-4.0249 1.7531-12.247 1.2262-5.6572-0.36253-7.9383-0.20459-7.2529 0.50218 0.94308 0.97236 2.9357 1.2803 18.25 2.82 10.214 1.0269 7.119 2.3954-5.4167 2.3954-12.553 0-14.324 1.0844-3.5042 2.1464 17.513 1.7189 19.803 3.7945 4.3618 3.9533-12.209 0.12558-16.983 1.2036-9.8014 2.2131 2.6893 0.37798 6.5975 0.68724 8.6849 0.68724s5.0621 0.50668 6.6104 1.126l2.8151 1.126-3 0.90385c-1.65 0.49711-5.9859 0.62495-9.6354 0.28407-9.9961-0.93369-9.0504 1.0098 1.1972 2.4602 10.648 1.51 10.818 3.1 0.32 3.1-4.7454 0-7.273 0.36729-6.882 1 0.33992 0.55 3.179 1.0069 6.309 1.0153 8.9798 0.0242 9.3796 1.5186 0.77753 2.9062-4.1533 0.67-7.9688 0.96029-8.4788 0.64509-0.51001-0.3152-1.7554-0.25486-2.7675 0.13411-2.8055 1.0782 1.671 2.0777 9.8507 2.1996 3.68 0.0548 6.9551 0.5271 7.278 1.0495 0.91469 1.48-3.3739 3.2908-6.1459 2.5951-1.4035-0.35225-2.2449-0.2275-1.9277 0.28581 0.30964 0.501 1.9223 1.1828 3.5838 1.5151 6.0851 1.217 3.0281 2.6542-5.6459 2.6542-9.4634 0-10.464 0.83064-2.2306 1.8513 7.5092 0.93082 7.6629 3.1139 0.23056 3.2758l-5.833 0.12 6.75 1.5232c10.187 2.2988 7.3782 4.6592-4.131 3.4713-3.968-0.40954-5.2374-0.24922-4.7154 0.59554 0.39293 0.63577 1.7004 1.1584 2.9054 1.1615 3.6151 0.009 9.691 2.0103 9.691 3.1917 0 0.7675-3.1198 0.94028-10.25 0.56766-10.764-0.56254-7.5985 0.82142 4.25 1.8578 7.8824 0.68948 8.9664 1.1768 6.5589 2.9486-1.068 0.8-2.98 1.44-4.25 1.44s-2.309 0.45-2.309 1 1.6016 1 3.559 1c2.118 0 3.3088 0.40488 2.941 1-0.33992 0.55-3.179 1.0069-6.309 1.0153-4.043 0.01-5.257 0.29-4.191 0.98 0.825 0.53316 3.6671 0.97627 6.3157 0.98469 5.1469 0.0164 9.1155 1.5085 8.1532 3.0655-0.32 0.52-1.938 0.95-3.588 0.95-1.7454 0-2.7415 0.41821-2.382 1 0.33992 0.55 1.4915 1 2.559 1 2.4175 0 2.5623 1.7106 0.19098 2.2555-0.9625 0.22119-6.2069 0.18493-11.654-0.0806-7.3307-0.35731-9.7188-0.18292-9.191 0.67116 0.39224 0.63465 1.9241 1.1628 3.4041 1.1736s6.291 0.67013 10.691 1.4651c4.4 0.79499 8.1125 1.4611 8.25 1.4803 6.1625 0.85999-2.7775 2.1164-13.251 1.8624-23.1-0.5603-16.426 1.5789 8.5014 2.725 16.086 0.73957 19 2.2734 19 9.9997 0 6.7327-7.3759 13.123-9.3149 8.0696-0.61-1.58 1.09-3.62 3.01-3.62 4.0371 0 0.43837-4.4187-4.45-5.464-2.96-0.64-4.645-2.54-2.25-2.54 0.55 0 1-0.675 1-1.5s-0.83719-1.5-1.8604-1.5-3.9482-0.28617-6.5-0.63592c-3.17-0.43-4.64-0.27-4.64 0.5 0 0.63 1.07 1.14 2.378 1.14 3.008 0 5.5761 2.6968 3.3731 3.5422-3.409 1.3081-13.221 0.0117-13.564-1.7922-0.25126-1.3203 0.36023-1.7673 2.4903-1.8203 2.4208-0.0603 2.5382-0.18166 0.82332-0.85148-4.234-1.66-13.512 13.99-21.006 35.42-0.96169 2.75-2.2897 6.35-2.9511 8-1.8525 4.6211-12.224 36.2-16.422 50-1.1711 3.85-2.623 9.475-3.2265 12.5-0.60347 3.025-1.4758 7.075-1.9384 9-0.46266 1.925-2.0233 9.575-3.4681 17-9.0485 46.502-13.463 81.271-11.642 91.698 3.0768 17.618 3.8443 24.363 3.5618 31.302l-0.30542 7.5 2.6981-3.3678c1.484-1.85 4.273-6.19 6.198-9.65zm67-41.48c-0.825-0.53316-3.6109-0.97627-6.191-0.98469-4.8249-0.0158-6.1966-0.7701-4.9801-2.7386 1.232-2 15.171 1.48 15.171 3.78 0 1.2128-2.0795 1.1821-4-0.059zm-3-5.6559c-7.7495-1.1888-9-1.5208-9-2.3894 0-0.52 1.733-0.95 3.851-0.95 4.394 0 10.149 1.76 10.149 3.1 0 0.91271-0.49644 0.93716-5 0.2463zm-7.25-6.0335c-4.1445-1.0831-1.7666-3.3108 3.5-3.2789 4.693 0.0284 8.75 1.5717 8.75 3.3284 0 0.70925-9.4933 0.67084-12.25-0.0496zm6.5-5.0547c-7.412-0.31-8.25-0.54-8.25-2.3 0-2.2982 2.662-2.5728 7.6066-0.78487 2.9271 1.0585 3.5014 0.93477 5.8037-1.25 4.9908-4.736 3.6584-6.4924-5.8278-7.6824-3.6119-0.45308-6.0968-1.281-6.3776-2.125-0.36646-1.1014 0.44369-1.2472 3.9822-0.71652 3.6855 0.55268 4.7476 0.3288 6.2345-1.3142 1.7649-1.9502 1.7032-1.985-4.055-2.2835-4.8097-0.24931-5.9113-0.63937-6.2082-2.1984-0.38791-2.0364-1.0968-2.0492 12.313 0.22246 2.7868 0.4721 4.3259 1.3843 5.1596 3.0579 0.65344 1.3118 1.7352 2.7232 2.4038 3.1365 3.407 2.1056-0.25141 15.952-3.9036 14.775-0.34722-0.11195-4.3438-0.35514-8.8813-0.54044zm129.09-3.8232c-0.33077-0.86197-0.0916-2.077 0.53139-2.7 1.5953-1.5953 1.4186-5.7328-0.24478-5.7328-2.8134 0-4.2429-3.0731-2.1436-4.6082 7.0247-5.1366 14.104 5.801 7.7164 11.921-3.1848 3.0513-4.9862 3.3956-5.8594 1.1199zm-136.67-3.11c-0.367-0.36-0.667-1.26-0.667-2 0-1.54 3.586-1.81 4.5-0.33 0.33992 0.55 1.4915 1 2.559 1s1.941 0.45 1.941 1c0 1.1044-7.2714 1.3953-8.3333 0.33333zm0-18c-1.753-1.75-0.467-3.33 2.711-3.33 3.188 0 10.622 2.46 10.622 3.51 0 0.74724-12.576 0.57738-13.333-0.18009zm0.333-6.86c0-2.2842 2.6724-2.8834 7.0331-1.5768 6.157 1.85 5.767 3.11-0.974 3.11-4.774 0-6.059-0.32-6.059-1.53zm-0.815-6.22c0.50367-2.6578 6.8072-2.8347 10.953-0.3074l3.3624 2.0499-7.3233 0.004c-6.4354 0.003-7.2831-0.20845-6.9917-1.7463zm1.565-3.9c-4.7681-1.3418-0.28507-3.6149 5.3516-2.7136 3.8226 0.61126 6.4802 2.3678 3.5824 2.3678-0.78871 0-2.7278 0.18861-4.309 0.41913s-3.6625 0.19752-4.625-0.0733zm-1.55-5.55c-2.0276-2.0276-1.3561-2.8 2.434-2.8 4.5697 0 11.473 2.0174 10.774 3.1485-0.81 1.3-11.849 1.01-13.21-0.35zm-0.06888-6.142c-1.393-1.68-0.477-2.66 2.489-2.66 2.743 0 7.38 1.99 7.38 3.16 0 1.3902-8.6642 0.94898-9.8689-0.50253zm-0.73811-6.2398c0.33384-0.86998 0.60699-1.77 0.60699-2 0-0.82783 5.3467-0.39461 9.134 0.74008 5.8776 1.761 4.6451 2.8417-3.241 2.8417-6.0698 0-7.0184-0.23084-6.5-1.5818zm-0.393-5.95c0-2.1115 2.878-3.0259 5.1189-1.6264 1.02 0.64 2.76 1.16 3.867 1.16 1.104 0 2.014 0.45 2.014 1s-2.475 1-5.5 1c-4.2723 0-5.5-0.34183-5.5-1.5314zm0-5.5c0-1.615 2.6915-2.2491 6.5075-1.5332 5.172 0.97 4.232 2.56-1.508 2.56-2.7681 0-5-0.46039-5-1.0314zm0.33224-5.5452c-0.38063-0.99191-0.2265-1.9587 0.34251-2.1483 0.56901-0.18967 0.82251-1.4542 0.56333-2.81-0.48912-2.5587 2.9981-3.4629 7.1744-1.8603 2.2924 0.87966 0.9099 2.39-2.2215 2.427-2.5821 0.0305-2.6124 0.0912-0.74985 1.5 1.0676 0.80751 3.3176 1.4751 5 1.4835 1.6824 0.008 3.7339 0.45153 4.5589 0.98469 1.0701 0.69154-0.0764 0.97768-4 0.99834-3.025 0.0159-6.507 0.29888-7.7378 0.62877-1.5983 0.42838-2.4356 0.0844-2.9299-1.2037zm-1.332-10.86c0-2.2813 1.7266-2.7843 7.0461-2.0527 7.484 1.03 6.744 3.49-1.046 3.49-4.5574 0-6-0.34645-6-1.441zm1.6757-4.7597c-0.85204-0.52682-0.7058-1.197 0.53119-2.4343 1.782-1.79 9.793-0.5 9.793 1.57 0 1.0962-8.7618 1.8259-10.324 0.85983zm-1.8568-6.3014c-1.734-1.77 0.609-3.5 4.729-3.5 3.9601 0 6.4667 1.3187 5.1016 2.6838-0.89189 0.89189-9.0876 1.5706-9.8306 0.81408zm0.181-7.03c0-2.3791 2.6831-2.8578 8.5987-1.5339 7.051 1.57 6.001 3.06-2.158 3.06-5.117 0-6.441-0.31-6.441-1.53zm-1.3247-5.1266c-1.1901-1.1901 1.517-3.3421 4.1971-3.3364 4.0261 0.009 10.251 1.9863 9.5941 3.0485-0.65554 1.0607-12.766 1.3135-13.791 0.28794zm0.99768-6.0023c-0.36317-0.36316 0.20375-1.2655 1.2598-2.0052 2.116-1.48 12.067-0.04 12.067 1.75 0 1.038-12.309 1.2752-13.327 0.25683zm-1.173-6.34c-1.0591-1.7137 0.49142-3 3.6162-3 4.11 0 11.884 2.04 11.884 3.12 0 1.22-14.739 1.11-15.5-0.12zm-0.76443-5.5978c-0.32877-0.32877-0.35563-1.2288-0.05968-2 1.022-2.66 14.324-1.2 14.324 1.58 0 1.0846-13.211 1.4801-14.264 0.42698zm-0.0066-6.4452c-2.7851-1.6983-1.0373-2.9584 4.08-2.9417 4.7725 0.0156 8.1933 1.2472 6.4524 2.3232-2.0173 1.2468-8.8446 1.6477-10.532 0.61855zm-0.59785-6.299c-0.61257-0.7381-0.81767-1.6381-0.45578-2 1.7446-1.7446 12.918 0.5723 11.764 2.4394-0.88282 1.4284-10.054 1.0721-11.309-0.43942zm0.54422-5.316c-0.991-0.98 1.329-3.33 3.298-3.33 2.9032 0 8.059 2.1388 7.4666 3.0974-0.63822 1.0327-9.7689 1.2401-10.764 0.2446zm-0.66-6.08c0.0558-2.7331 1.9127-3.4793 6.5409-2.6286 7.2504 1.3328 6.9641 3.3786-0.47286 3.3786-3.3458 0-6.0764-0.3375-6.068-0.75zm0.22968-6.5c0.51796-1.5728 4.0154-2.1113 8.386-1.2914 5.471 1.0264 3.8529 2.5414-2.7143 2.5414-4.4196 0-5.9707-0.34187-5.6717-1.25zm0.26927-4.7269c-1.4767-2.3893 1.1823-3.1741 8.3588-2.4669 7.477 0.73677 9.8145 2.436 3.3769 2.4549-2.0625 0.006-5.3803 0.28064-7.3729 0.61021-2.3244 0.38445-3.8881 0.17008-4.3629-0.59814zm-1.9926-5.988c-0.35663-0.57704-0.01-1.2941 0.7703-1.5936 2.349-0.9 14.209-0.02 14.209 1.06 0 1.3688-14.151 1.8742-14.978 0.53503zm-0.521-6.03c0-1.8079 0.66667-2 6.941-2 7.1892 0 9.5498 1.1318 6.1528 2.9498-3.769 2.02-13.094 1.34-13.094-0.95zm48.714 0.75c-0.24906-0.6875 0.204-2.0052 1.0068-2.9283 2.0666-2.3762 0.75783-5.4592-2.8517-6.7175-3.5284-1.23-3.3778-3.0402 0.40626-4.8854 9.179-4.476 14.825 9.5753 5.736 14.275-3.5273 1.8241-3.725 1.8358-4.2974 0.25582zm28.04 0.17c-0.96-0.56-1.75-1.65-1.75-2.42 0-0.77034 0.7875-1.8744 1.75-2.4535 1.5992-0.96218 1.5131-1.2497-1-3.3373-3.8124-3.1669-3.6495-6.3528 0.36984-7.2356 8.1451-1.789 13.17 11.257 5.8027 15.066-3.2934 1.7031-2.9446 1.6775-5.1726 0.37985zm46.564-4.5437c-0.37497-0.97718 0.0357-1.9925 1.0314-2.5497 2.1018-1.1762 2.1156-3.6595 0.0332-5.9605-2.1256-2.3487-1.0797-4.866 2.0218-4.866 5.2161 0 8.7118 9.7784 4.7707 13.345-2.3602 2.136-7.0423 2.1546-7.8571 0.0312zm-123.99-1.98c-1.1786-3.0714 1.9625-3.6502 9.114-1.6794 1.8894 0.52068 1.8909 0.56745 0.05887 1.907-2.6286 1.9221-8.403 1.7788-9.1729-0.22764zm149.34 0.17403c-0.30115-0.78478 0.1007-1.9649 0.89301-2.6224 2.0943-1.7382 1.7754-5.7011-0.55944-6.9507-2.5494-1.3644-2.5374-2.642 0.0378-4.0202 4.0313-2.1575 9.9488 3.0134 9.9585 8.7021 0.007 4.1389-8.9847 8.3966-10.33 4.8912zm-96.57-111.97c-0.95471-1.1504-0.83332-1.6452 0.60049-2.4476 0.98841-0.55315 1.5759-1.1852 1.3054-1.4046-0.27042-0.21936-1.9338-1.3943-3.6965-2.6109-3.7299-2.5745-3.4676-4.4826 0.9287-6.756 7.5178-3.8876 14.259 6.9658 7.6303 12.284-2.5122 2.0156-5.5259 2.4318-6.7684 0.93459zm22.91 0.53c0-0.47583 0.92924-2.0465 2.065-3.4904 2.3372-2.9713 1.846-4.6373-1.374-4.6598-4.1451-0.029-5.2492-1.4838-3.3389-4.3994 3.855-5.8835 15.252-1.6331 14.085 5.2532-0.94 5.52-11.44 12.22-11.44 7.3zm46.441-0.23021c-0.37233-0.60245-0.1141-2.1471 0.57386-3.4325 1.679-3.1373 0.59171-5.6826-2.2581-5.2861-2.4828 0.34546-3.5226-2.5216-1.8505-5.1027 3.1178-4.8126 11.094 0.23983 11.094 7.0274 0 5.5407-5.3575 10.356-7.5589 6.7939zm-21.98-0.96766c-0.36134-0.58466 0.11668-1.9179 1.0623-2.9628 2.19-2.41 1.25-4.97-1.82-4.97-4.5882 0-4.3529-3.0929 0.42313-5.5627 7.3072-3.7787 13.39 6.1421 7.4243 12.108-2.5556 2.5556-5.9526 3.2229-7.0844 1.3915zm39.9-0.43c-0.31659-0.825-0.33337-2.1313-0.0373-2.9028 0.29607-0.77154-0.0915-2.234-0.86121-3.25-2.5843-3.411-1.8764-7.3472 1.3213-7.3472 5.1965 0 8.3919 9.7205 4.3869 13.345-2.2732 2.0572-4.0576 2.1147-4.8096 0.15499zm11.328-3.75c-0.2817-2.3375-0.81731-5.4239-1.1902-6.8586-0.49373-1.8994-0.24807-2.7736 0.9036-3.2156 2.6757-1.0268 5.1297 5.5338 4.7034 12.574-0.24049 3.9718-3.8854 1.9087-4.4168-2.5zm-64.57-98.217c-2.4402-3.8478-3.0015-6.1707-4.0473-16.75-0.66783-6.7555-1.4579-14.113-1.7558-16.35-0.79251-5.9522 1.1087-7.4363 9.5017-7.417 9.7875 0.02244 12.469 2.3264 3.7141 3.1917-3.5282 0.34872-4.9456 4.7242-3.374 10.416 0.66413 2.4053 0.57209 4.4718-0.3075 6.9043-0.97675 2.7011-0.98889 3.738-0.0547 4.6722 0.66 0.66 1.2 3.585 1.2 6.5s0.43417 5.3 0.96482 5.3c1.47 0 3.04-3.518 3.04-6.819 0-3.4947 2.3383-9.5089 3.3167-8.5305 1.0541 1.0541 0.80801 7.1549-0.31668 7.85-0.55 0.33992-1.0099 2.054-1.022 3.809-0.0721 10.48-6.2029 14.56-10.855 7.2237zm18.824 459.44c9.1006-1.181 9.5373-1.5708 7.9546-7.0988-1.9548-6.8273-2.2968-7.0388-10.312-6.3782-13.19 1.09-15.58 1.56-15.58 3.07 0 1.12-1.63 1.44-7.44 1.44-4.0925 0-7.7191 0.45-8.059 1-0.38408 0.62146 1.5141 1 5.0143 1 5.8786 0 8.0609 3.0583 2.7255 3.8196-2.4832 0.35429-2.4899 0.36496-1.6328 2.5987 0.72129 1.8797 14.908 2.1669 27.34 0.55355zm124.6-1.3863c4.1144-3.0086 0.21503-65.872-4.5659-73.608-2.0843-3.3724-2.4744 1.92-2.275 30.86 0.12378 17.959-0.18071 31.29-0.73469 32.166-1.0329 1.6339-1.3369-2.2271-1.4963-19.003-0.19592-20.622-1.5657-34.21-3.4996-34.715-1.0578-0.27662-2.0099-1.7515-2.3404-3.6255-0.30644-1.7376-0.98074-5.4092-1.4984-8.1592-0.51772-2.75-1.3989-7.475-1.9582-10.5-0.55928-3.025-1.6646-7.525-2.4562-10-2.1974-6.87-3.5689-12.141-4.1632-16-0.29647-1.925-1.1806-5.75-1.9648-8.5-3.4058-11.943-4.8427-17.222-5.5806-20.5-0.43329-1.925-1.4869-5.525-2.3413-8-0.85445-2.475-2.0111-6.3-2.5704-8.5-3.2698-12.863-13.407-44.499-14.259-44.5-0.69207-0.00053-1.4453 12.106-2.4258 38.989-0.33077 9.0694-0.77505 16.771-0.98729 17.114-0.21224 0.34341-0.83681 6.873-1.3879 14.51-0.55112 7.6371-1.432 19.736-1.9576 26.886-2.1586 29.366-2.2881 39.5-0.50487 39.5 3.032 0 27.415 22.516 27.415 25.316 0 0.46815 1.5435 2.3502 3.4301 4.1822 1.8865 1.8321 4.1423 4.607 5.0129 6.1666 0.87055 1.5596 3.3346 5.6235 5.4756 9.0309s5.0068 8.9676 6.3684 12.356c1.3694 3.4079 2.7168 5.5548 3.0154 4.8047 0.29686-0.74583 0.57527-0.19356 0.61869 1.2273 0.1288 4.2145 3.6917 5.3827 7.6312 2.5021zm-180.04-3.08c0-1.1 0.28682-2.45 0.63739-3 1.0532-1.6524 0.70688-6.9471-0.506-7.7347-2.1964-1.4262-6.6144-0.88462-5.993 0.73469 0.42094 1.0969-0.1249 1.5-2.0314 1.5-1.7469 0-2.607 0.5397-2.607 1.6359 0 1.3724-0.76531 1.5356-4.75 1.0133l-4.75-0.62262 2.5 1.9645c1.375 1.0804 3.46 1.9744 4.6334 1.9867 1.2517 0.0131 2.3412 0.81682 2.6361 1.9448 0.87945 3.363 10.23 3.8908 10.23 0.57741zm99.133-16.173c0.7999-3.187 0.16946-3.6496-3.0036-2.2039-2.611 1.1896-3.7974 6.3755-1.894 8.2788 0.9556 0.9556 4.1173-2.9662 4.8975-6.0749zm-59.63-3.38c-6.1196-1.0889-16.194-1.0422-11 0.051 1.925 0.40519 6.2 0.73963 9.5 0.74319l6 0.006-4.5-0.80071zm36.379-33.141c-0.13-16.79-1.36-36.46-3.94-62.81-0.83469-8.525-1.9737-20.9-2.5312-27.5-1.386-16.41-2.7207-30.462-3.7993-40-2.7133-23.993-3.2754-28.259-4.0844-31-0.48704-1.65-1.176-5.7293-1.5311-9.0651-0.72289-6.7916-2.4568-10.96-2.4685-5.9349-0.004 1.65 1.1147 11.55 2.4857 22 7.4997 57.164 12.164 115.08 12.55 155.85 0.15664 16.527 0.29044 17.728 1.8048 16.209 1.3896-1.3937 1.6174-4.0639 1.5145-17.752zm-30.88-6.81c-0.33992-0.55-1.9415-1-3.559-1s-2.941 0.45-2.941 1 1.6016 1 3.559 1c2.118 0 3.3088-0.40488 2.941-1zm-1-5c0.36058-0.58342-0.65628-1-2.441-1-1.6825 0-3.059 0.45-3.059 1s1.0984 1 2.441 1c1.3425 0 2.7191-0.45 3.059-1zm0.35676-7.1097c-1.82-1.15-5.86-1.12-5.86 0.04 0 0.98405 4.8933 1.9287 6.3568 1.2271 0.47122-0.22589 0.24622-0.79757-0.5-1.2704zm-44.06-404.09c0.66-0.66 1.2-2.7029 1.2-4.5398s0.91702-5.1373 2.0378-7.3343c2.2222-4.3558 2.046-5.4092-1.0398-6.2161-3.28-0.857-5 1.83-5 7.796 0 2.9499-0.42127 6.4715-0.93616 7.8257-1.3452 3.5383 1.0702 5.1338 3.7362 2.4679zm65.2-13.693c0-1.778-0.64255-3.1396-1.6672-3.5328-2.7432-1.0527-3.6919 0.94807-1.8109 3.8189 2.23 3.406 3.48 3.304 3.48-0.286z"/>
</svg>
