<?xml version="1.0" encoding="iso-8859-1"?>
<!-- Uploaded to: SVG Repo, www.svgrepo.com, Generator: SVG Repo Mixer Tools -->
<svg height="800px" width="800px" version="1.1" id="Layer_1" xmlns="http://www.w3.org/2000/svg" xmlns:xlink="http://www.w3.org/1999/xlink" 
	 viewBox="0 0 512 512" xml:space="preserve">
<path style="fill:#FFFFFF;" d="M264.535,307.166c0-7.903-5.471-14.543-12.802-16.455c1.374-0.358,2.782-0.614,4.267-0.614
	c-9.388,0-17.07,7.681-17.07,17.07c0,9.388,7.681,17.069,17.07,17.069c-1.485,0-2.893-0.247-4.267-0.614
	C259.055,321.709,264.535,315.069,264.535,307.166z"/>
<path style="fill:#F4F4F4;" d="M256,290.096c-1.485,0-2.893,0.247-4.267,0.614c7.331,1.912,12.802,8.552,12.802,16.455
	c0,7.903-5.471,14.543-12.802,16.455c1.374,0.358,2.782,0.614,4.267,0.614c9.388,0,17.069-7.681,17.069-17.069
	C273.07,297.778,265.388,290.096,256,290.096z"/>
<path style="fill:#FFFFFF;" d="M264.535,221.818c0-7.903-5.471-14.543-12.802-16.455c1.374-0.358,2.782-0.615,4.267-0.615
	c-9.388,0-17.07,7.681-17.07,17.07c0,9.388,7.681,17.07,17.07,17.07c-1.485,0-2.893-0.247-4.267-0.615
	C259.055,236.362,264.535,229.721,264.535,221.818z"/>
<path style="fill:#F4F4F4;" d="M256,204.749c-1.485,0-2.893,0.247-4.267,0.615c7.331,1.912,12.802,8.552,12.802,16.455
	c0,7.903-5.471,14.543-12.802,16.455c1.374,0.358,2.782,0.615,4.267,0.615c9.388,0,17.069-7.681,17.069-17.07
	C273.07,212.43,265.388,204.749,256,204.749z"/>
<path style="fill:#FFFFFF;" d="M264.535,136.471c0-7.903-5.471-14.543-12.802-16.455c1.374-0.358,2.782-0.615,4.267-0.615
	c-9.388,0-17.07,7.681-17.07,17.07s7.681,17.07,17.07,17.07c-1.485,0-2.893-0.248-4.267-0.615
	C259.055,151.014,264.535,144.374,264.535,136.471z"/>
<path style="fill:#F4F4F4;" d="M256,119.401c-1.485,0-2.893,0.248-4.267,0.614c7.331,1.912,12.802,8.552,12.802,16.455
	s-5.471,14.543-12.802,16.455c1.374,0.358,2.782,0.615,4.267,0.615c9.388,0,17.069-7.681,17.069-17.07
	C273.07,127.083,265.388,119.401,256,119.401z"/>
<path style="fill:#B71C1C;" d="M247.465,31.903L247.465,31.903L247.465,31.903z"/>
<path style="fill:#FFC107;" d="M228.859,452.513c0.512,0,0.939,0,1.366,0.085c9.73,0.427,18.35,6.06,25.775,16.728
	c6.999-9.986,14.936-15.619,23.983-16.557c0.597-0.085,1.195-0.171,1.792-0.171c6.23-0.256,11.693,1.536,16.813,4.353h0.043
	l-7.041-38.833h-71.18l-10.412,57.524l3.414-18.606C218.106,454.305,223.312,452.513,228.859,452.513z"/>
<g>
	<polygon style="fill:#F9A825;" points="298.674,456.951 298.631,456.951 302.002,475.557 	"/>
	<path style="fill:#F9A825;" d="M298.631,456.951h-0.043c-5.121-2.816-10.583-4.609-16.813-4.353c-0.597,0-1.195,0.085-1.792,0.171
		c-9.047,0.939-16.984,6.572-23.983,16.557c-7.425-10.668-16.045-16.301-25.775-16.728c-0.427-0.085-0.853-0.085-1.366-0.085
		c-5.548,0-10.754,1.792-15.448,4.523l-3.414,18.606c5.548-3.841,11.949-6.572,18.862-6.572c0.512,0,0.939,0,1.366,0.085
		c9.73,0.427,18.35,6.06,25.775,16.728c7.425-10.668,16.045-16.301,25.775-16.728c7.596-0.341,14.338,2.39,20.227,6.401
		L298.631,456.951z"/>
</g>
<path d="M256,102.332c-18.862,0-34.139,15.277-34.139,34.139S237.138,170.61,256,170.61s34.139-15.277,34.139-34.139
	C290.139,117.609,274.862,102.332,256,102.332z M256,153.54c-0.768,0-1.451-0.085-2.134-0.171c-0.768-0.085-1.451-0.171-2.134-0.427
	c-7.34-1.878-12.802-8.535-12.802-16.472s5.462-14.594,12.802-16.472c0.683-0.256,1.366-0.341,2.134-0.427
	c0.683-0.085,1.366-0.171,2.134-0.171c9.388,0,17.069,7.681,17.069,17.07C273.07,145.859,265.388,153.54,256,153.54z"/>
<path d="M256,187.679c-18.862,0-34.139,15.277-34.139,34.139s15.277,34.139,34.139,34.139s34.139-15.277,34.139-34.139
	C290.139,202.956,274.862,187.679,256,187.679z M256,238.888c-0.768,0-1.451-0.085-2.134-0.171
	c-0.768-0.085-1.451-0.171-2.134-0.427c-7.34-1.878-12.802-8.535-12.802-16.472c0-7.937,5.462-14.594,12.802-16.472
	c0.683-0.256,1.366-0.341,2.134-0.427c0.683-0.085,1.366-0.171,2.134-0.171c9.388,0,17.069,7.681,17.069,17.07
	C273.07,231.207,265.388,238.888,256,238.888z"/>
<path d="M256,273.027c-18.862,0-34.139,15.277-34.139,34.139c0,18.862,15.277,34.139,34.139,34.139s34.139-15.277,34.139-34.139
	C290.139,288.304,274.862,273.027,256,273.027z M256,324.235c-0.768,0-1.451-0.085-2.134-0.171
	c-0.768-0.085-1.451-0.171-2.134-0.427c-7.34-1.878-12.802-8.535-12.802-16.472c0-7.937,5.462-14.594,12.802-16.472
	c0.683-0.256,1.366-0.341,2.134-0.427c0.683-0.085,1.366-0.171,2.134-0.171c9.388,0,17.069,7.681,17.069,17.07
	C273.07,316.554,265.388,324.235,256,324.235z"/>
<path d="M336.483,308.019c-0.683-0.341-1.366-0.597-2.048-0.683C355.003,125.034,293.382,35.334,262.145,2.56
	c-3.158-3.414-9.132-3.414-12.29,0c-31.237,32.773-92.858,122.474-72.289,304.776c-0.683,0.085-1.366,0.341-2.048,0.683
	c-66.827,31.835-47.795,97.638-29.445,161.222c2.646,9.303,5.377,18.606,7.767,27.823c0.939,3.499,3.841,5.974,7.425,6.316
	c3.585,0.427,6.913-1.451,8.449-4.609l29.445-58.719l-11.266,61.877c-0.768,4.097,1.536,8.108,5.462,9.559
	c0.939,0.341,1.878,0.512,2.902,0.512c2.987,0,5.804-1.536,7.425-4.267c4.182-7.255,16.045-21.934,25.69-21.593
	c6.23,0.341,12.973,7.767,18.862,20.825c1.366,3.073,4.438,5.035,7.767,5.035c3.329,0,6.401-1.963,7.767-5.035
	c5.889-13.058,12.546-20.483,18.862-20.825c10.242-0.512,22.361,15.875,25.775,21.593c2.048,3.585,6.401,5.121,10.327,3.755
	c3.841-1.451,6.145-5.462,5.377-9.559l-11.266-61.877l29.445,58.719c1.536,3.158,4.95,5.036,8.449,4.609
	c3.585-0.341,6.486-2.816,7.425-6.316c2.39-9.218,5.121-18.52,7.767-27.823C384.277,405.657,403.31,339.854,336.483,308.019z
	 M164.422,471.289c-0.683-2.304-1.28-4.523-1.963-6.742c-17.496-60.767-32.688-113.427,17.326-139.629
	c3.585,26.031,8.791,53.94,15.96,83.641L164.422,471.289z M281.775,469.156c-9.73,0.427-18.35,6.06-25.775,16.728
	c-7.425-10.668-16.045-16.301-25.775-16.728c-0.427-0.085-0.853-0.085-1.366-0.085c-6.913,0-13.314,2.731-18.862,6.572l3.414-18.606
	l6.999-38.918h71.18l6.999,38.833l3.414,18.606C296.113,471.545,289.371,468.814,281.775,469.156z M300.466,401.048h-88.932
	c-50.867-214.393,1.707-324.833,38.065-372.03c0.512-0.597,0.939-1.195,1.366-1.707c1.707-2.219,3.414-4.267,5.036-6.145
	C292.102,63.328,354.406,173.853,300.466,401.048z M349.541,464.547c-0.683,2.219-1.28,4.438-1.963,6.742l-31.323-62.73
	c7.169-29.701,12.375-57.61,15.96-83.641C382.229,351.12,367.037,403.779,349.541,464.547z"/>
<g>
	<path style="fill:#0091EA;" d="M349.541,464.547c-0.683,2.219-1.28,4.438-1.963,6.742l-31.323-62.73
		c7.169-29.701,12.375-57.61,15.96-83.641C382.229,351.12,367.037,403.779,349.541,464.547z"/>
	<path style="fill:#0091EA;" d="M195.745,408.559l-31.323,62.73c-0.683-2.304-1.28-4.523-1.963-6.742
		c-17.496-60.767-32.688-113.427,17.326-139.629C183.369,350.949,188.575,378.858,195.745,408.559z"/>
</g>
<path style="fill:#D50000;" d="M256,21.166c-1.622,1.878-3.329,3.926-5.036,6.145c-0.427,0.512-0.853,1.11-1.366,1.707
	c-36.358,47.197-88.932,157.637-38.065,372.03h88.932C354.406,173.853,292.102,63.328,256,21.166z M256,341.305
	c-18.862,0-34.139-15.277-34.139-34.139c0-18.862,15.277-34.139,34.139-34.139s34.139,15.277,34.139,34.139
	C290.139,326.028,274.862,341.305,256,341.305z M256,255.957c-18.862,0-34.139-15.277-34.139-34.139s15.277-34.139,34.139-34.139
	s34.139,15.277,34.139,34.139C290.139,240.68,274.862,255.957,256,255.957z M256,170.61c-18.862,0-34.139-15.277-34.139-34.139
	s15.277-34.139,34.139-34.139s34.139,15.277,34.139,34.139C290.139,155.333,274.862,170.61,256,170.61z"/>
<path style="fill:#B71C1C;" d="M256,21.166c-1.34,1.562-2.723,3.243-4.131,5.01c-0.051,0.068-0.102,0.137-0.154,0.196
	c-1.391,1.75-2.808,3.593-4.25,5.522l0,0c36.29,48.751,85.817,159.028,35.931,369.145h17.07
	C354.406,173.853,292.102,63.328,256,21.166z"/>
<g>
	<path style="fill:#2979FF;" d="M332.215,324.918c-0.358,2.595-0.802,5.283-1.195,7.912c32.953,26.364,22.771,70.71,8.219,121.757
		l8.338,16.703c0.683-2.304,1.28-4.523,1.963-6.742C367.037,403.779,382.229,351.12,332.215,324.918z"/>
	<path style="fill:#2979FF;" d="M179.785,324.918c-2.936,1.536-5.607,3.183-8.117,4.908c-2.458,1.715-4.711,3.508-6.794,5.377
		c3.482,22.882,8.125,47.069,14.304,72.673l-20.927,41.923v0.009c1.366,4.856,2.765,9.764,4.199,14.74
		c0.683,2.219,1.28,4.438,1.963,6.742l31.323-62.73C188.575,378.858,183.369,350.949,179.785,324.918z"/>
</g>
</svg>