<?xml version="1.0" encoding="iso-8859-1"?>
<!-- Uploaded to: SVG Repo, www.svgrepo.com, Generator: SVG Repo Mixer Tools -->
<!DOCTYPE svg PUBLIC "-//W3C//DTD SVG 1.1//EN" "http://www.w3.org/Graphics/SVG/1.1/DTD/svg11.dtd">
<svg version="1.1" id="Capa_1" xmlns="http://www.w3.org/2000/svg" xmlns:xlink="http://www.w3.org/1999/xlink" 
	 viewBox="0 0 192.986 192.986" xml:space="preserve">
<g>
	<path style="fill:#493633;" d="M96.401,137.739c-0.434-0.003-0.863-0.024-1.296-0.033v3.384h1.296V137.739z"/>
	<path style="fill:#342421;" d="M96.401,137.739v3.352h1.48v-3.384c-0.464,0.009-0.923,0.035-1.388,0.035
		C96.462,137.742,96.431,137.74,96.401,137.739z"/>
	<path style="fill:#FDBB47;" d="M95.105,141.091h-0.868c-2.463,0-4.459,1.997-4.459,4.459v0.917h6.623v-5.376H95.105z"/>
	<path style="fill:#FAA338;" d="M96.401,146.467h6.622v-0.917c0-2.462-1.996-4.459-4.459-4.459h-0.683h-1.48V146.467z"/>
	<path style="fill:#493633;" d="M46.453,114.494c-3.837-4.538-7.062-9.604-9.563-15.075l26.317,68.026h3.717L46.453,114.494z"/>
	<path style="fill:#493633;" d="M57.169,124.628l13.661,42.818h3.233L61.326,127.49C59.905,126.585,58.512,125.638,57.169,124.628z"
		/>
	<path style="fill:#493633;" d="M69.54,131.937l10.832,35.509h3.117l-10.368-34.013C71.909,132.969,70.716,132.469,69.54,131.937z"
		/>
	<path style="fill:#342421;" d="M146.259,114.812l-20.35,52.634h3.717l25.623-66.232C152.82,106.128,149.79,110.689,146.259,114.812
		z"/>
	<path style="fill:#342421;" d="M131.47,127.613l-12.7,39.833h3.233l13.613-42.666C134.276,125.78,132.886,126.716,131.47,127.613z"
		/>
	<path style="fill:#342421;" d="M119.693,133.501l-10.348,33.945h3.117l10.808-35.429
		C122.094,132.544,120.904,133.042,119.693,133.501z"/>
	<path style="fill:#F6D276;" d="M140.356,72.226c0,34.999-18.375,63.585-41.501,65.419c7.312-0.26,14.327-1.677,20.838-4.144
		c1.211-0.458,2.401-0.956,3.577-1.484c2.848-1.277,5.586-2.749,8.2-4.404c1.416-0.896,2.806-1.833,4.146-2.833
		c3.91-2.916,7.474-6.269,10.643-9.969c3.53-4.122,6.561-8.683,8.99-13.598c4.32-8.741,6.76-18.578,6.76-28.988
		c0-19.301-8.349-36.649-21.629-48.639h-14.505C134.766,35.577,140.356,52.925,140.356,72.226z"/>
	<path style="fill:#F6E7AA;" d="M97.881,137.707c0.226-0.005,0.443-0.036,0.668-0.043c-0.682,0.047-1.366,0.078-2.056,0.078
		C96.958,137.742,97.417,137.716,97.881,137.707z"/>
	<path style="fill:#F6E7AA;" d="M57.169,124.628c1.343,1.01,2.735,1.957,4.156,2.862c2.617,1.669,5.36,3.156,8.214,4.447
		c1.177,0.532,2.369,1.032,3.581,1.496c6.558,2.506,13.628,3.948,21.002,4.211C71,135.804,52.63,107.221,52.63,72.226
		c0-19.301,5.59-36.649,14.48-48.639H52.606c-13.279,11.99-21.629,29.338-21.629,48.639c0,6.873,1.063,13.497,3.026,19.721
		c0.008,0.025,0.018,0.05,0.025,0.075c0.804,2.538,1.768,5.004,2.861,7.398c2.501,5.471,5.726,10.537,9.563,15.075
		C49.634,118.257,53.225,121.664,57.169,124.628z"/>
	<path style="fill:#F6E7AA;" d="M96.494,137.742c-0.031,0-0.062-0.003-0.093-0.003c-0.654-0.002-1.306-0.03-1.953-0.074
		c0.222,0.006,0.436,0.037,0.657,0.042c0.433,0.009,0.862,0.03,1.296,0.033C96.431,137.74,96.462,137.742,96.494,137.742z"/>
	<path style="fill:#FAA338;" d="M96.494,137.742c0.689,0,1.374-0.031,2.056-0.078c0.103-0.003,0.203-0.016,0.306-0.019
		c23.126-1.834,41.501-30.42,41.501-65.419c0-19.301-5.59-36.649-14.481-48.639h-17.853c3.488,11.99,5.683,29.338,5.683,48.639
		C113.706,108.409,105.998,137.742,96.494,137.742z"/>
	<path style="fill:none;stroke:#FDBB47;stroke-width:0;stroke-linecap:round;stroke-linejoin:round;" d="M98.549,137.664
		c0.103-0.003,0.203-0.016,0.306-0.019"/>
	<path style="fill:#FDBB47;" d="M96.401,137.738c0.031,0,0.062,0.003,0.093,0.003c-0.031,0-0.063-0.008-0.093-0.009
		c-9.463-0.19-17.12-29.441-17.12-65.507c0-19.301,2.193-36.649,5.683-48.639H67.111c-8.891,11.99-14.48,29.338-14.48,48.639
		c0,34.995,18.37,63.578,41.492,65.418c0.109,0.004,0.216,0.018,0.325,0.021C95.095,137.708,95.747,137.736,96.401,137.738z"/>
	<path style="fill:none;stroke:#FDBB47;stroke-width:0;stroke-linecap:round;stroke-linejoin:round;" d="M94.123,137.644
		c0.109,0.004,0.216,0.018,0.325,0.021"/>
	<path style="fill:#F6D276;" d="M96.494,137.742c9.505,0,17.212-29.332,17.212-65.516c0-19.301-2.194-36.649-5.683-48.639H96.401
		v114.146C96.431,137.733,96.462,137.742,96.494,137.742z"/>
	<path style="fill:#F6E7AA;" d="M96.401,137.732V23.586H84.963c-3.489,11.99-5.683,29.338-5.683,48.639
		C79.281,108.291,86.938,137.542,96.401,137.732z"/>
	<path style="fill:#342421;" d="M96.401,16.23v7.356h11.622h17.853h14.505h0.189c1.075,0,1.57-1.31,0.787-2.047
		c-2.107-1.983-4.352-3.822-6.707-5.515c-0.188,0.124-0.416,0.205-0.683,0.205H96.401z"/>
	<path style="fill:#493633;" d="M84.963,23.586h11.438V16.23H59.019c-0.267,0-0.495-0.081-0.682-0.205
		c-2.356,1.692-4.6,3.532-6.708,5.515c-0.783,0.737-0.288,2.047,0.788,2.047h0.188h14.505H84.963z"/>
	<path style="fill:#FDBB47;" d="M88.527,0.535c-0.395,0.053-0.784,0.12-1.176,0.18c0.116-0.018,0.236-0.025,0.354-0.042
		C87.98,0.631,88.249,0.572,88.527,0.535z"/>
	<path style="fill:#FDBB47;" d="M86.624,0.832c-0.538,0.09-1.074,0.186-1.607,0.29c0.331-0.065,0.67-0.108,1.004-0.168
		C86.224,0.918,86.421,0.866,86.624,0.832z"/>
	<path style="fill:#FDBB47;" d="M105.635,0.715c-0.392-0.061-0.781-0.127-1.176-0.18c0.277,0.037,0.547,0.096,0.823,0.137
		C105.399,0.69,105.519,0.697,105.635,0.715z"/>
	<path style="fill:#FDBB47;" d="M115.532,3.143c-0.178-0.061-0.351-0.129-0.53-0.188c-0.021,0.002-0.042,0.004-0.063,0.006
		C115.135,3.025,115.337,3.076,115.532,3.143z"/>
	<path style="fill:#FDBB47;" d="M104.154,0.5c-0.871-0.113-1.749-0.207-2.633-0.281c0.291,0.024,0.572,0.075,0.861,0.104
		C102.973,0.381,103.569,0.424,104.154,0.5z"/>
	<path style="fill:#FDBB47;" d="M107.969,1.123c-0.532-0.104-1.069-0.2-1.607-0.29c0.204,0.034,0.401,0.086,0.604,0.123
		C107.299,1.014,107.638,1.057,107.969,1.123z"/>
	<path style="fill:#FDBB47;" d="M77.986,2.955c-0.18,0.059-0.354,0.127-0.531,0.188c0.194-0.066,0.396-0.117,0.593-0.182
		C78.027,2.958,78.005,2.957,77.986,2.955z"/>
	<path style="fill:#FDBB47;" d="M80.973,2.065c-1.007,0.273-2.005,0.566-2.987,0.89c0.418-0.138,0.854-0.237,1.277-0.366
		C79.833,2.414,80.395,2.222,80.973,2.065z"/>
	<path style="fill:#FDBB47;" d="M91.465,0.219c-0.884,0.074-1.761,0.168-2.632,0.281c0.585-0.076,1.18-0.119,1.771-0.177
		C90.893,0.294,91.175,0.243,91.465,0.219z"/>
	<path style="fill:#FDBB47;" d="M84.406,1.25c-0.599,0.124-1.196,0.252-1.787,0.394c0.272-0.066,0.556-0.106,0.83-0.168
		C83.769,1.403,84.083,1.317,84.406,1.25z"/>
	<path style="fill:#FDBB47;" d="M110.369,1.644c-0.592-0.142-1.189-0.27-1.788-0.394c0.322,0.067,0.637,0.154,0.957,0.226
		C109.812,1.538,110.095,1.578,110.369,1.644z"/>
	<path style="fill:#FDBB47;" d="M82.058,1.787c-0.291,0.074-0.584,0.146-0.874,0.224c0.178-0.047,0.36-0.081,0.539-0.127
		C81.836,1.854,81.945,1.815,82.058,1.787z"/>
	<path style="fill:#FDBB47;" d="M67.213,7.796c2.129-1.231,4.35-2.333,6.65-3.294C71.562,5.462,69.342,6.564,67.213,7.796z"/>
	<path style="fill:#FDBB47;" d="M119.123,4.503c2.3,0.96,4.521,2.062,6.649,3.293C123.644,6.564,121.425,5.462,119.123,4.503z"/>
	<path style="fill:#FDBB47;" d="M111.8,2.01c-0.289-0.077-0.581-0.15-0.873-0.223c0.114,0.029,0.223,0.067,0.336,0.096
		C111.441,1.929,111.623,1.962,111.8,2.01z"/>
	<path style="fill:#FDBB47;" d="M115,2.955c-0.982-0.324-1.979-0.617-2.986-0.89c0.578,0.157,1.14,0.35,1.71,0.524
		C114.147,2.717,114.582,2.817,115,2.955z"/>
	<path style="fill:#FDBB47;" d="M96.401,16.23V9.939c-10.781-0.004-20.8-0.792-29.188-2.142c-3.223,1.864-6.24,4.014-8.996,6.433
		c-0.616,0.541-0.468,1.406,0.121,1.795c0.187,0.124,0.415,0.205,0.682,0.205H96.401z M90.64,11.795
		c0.946,0,1.713,0.767,1.713,1.713c0,0.946-0.767,1.714-1.713,1.714c-0.946,0-1.714-0.768-1.714-1.714
		C88.926,12.563,89.694,11.795,90.64,11.795z M78.585,11.795c0.946,0,1.713,0.767,1.713,1.713c0,0.946-0.767,1.714-1.713,1.714
		c-0.946,0-1.714-0.768-1.714-1.714C76.872,12.563,77.639,11.795,78.585,11.795z M66.531,11.795c0.946,0,1.713,0.767,1.713,1.713
		c0,0.946-0.767,1.714-1.713,1.714c-0.946,0-1.714-0.768-1.714-1.714C64.817,12.563,65.584,11.795,66.531,11.795z"/>
	<path style="fill:#FAA338;" d="M96.401,9.939v6.291h37.566c0.267,0,0.495-0.081,0.683-0.205c0.588-0.39,0.736-1.254,0.12-1.795
		c-2.756-2.419-5.774-4.569-8.996-6.433c-8.413,1.354-18.464,2.143-29.28,2.143C96.462,9.939,96.432,9.939,96.401,9.939z
		 M126.804,11.795c0.946,0,1.713,0.767,1.713,1.713c0,0.946-0.767,1.714-1.713,1.714c-0.946,0-1.714-0.768-1.714-1.714
		C125.09,12.563,125.858,11.795,126.804,11.795z M114.749,11.795c0.946,0,1.713,0.767,1.713,1.713c0,0.946-0.767,1.714-1.713,1.714
		c-0.946,0-1.714-0.768-1.714-1.714C113.036,12.563,113.803,11.795,114.749,11.795z M102.695,11.795
		c0.946,0,1.713,0.767,1.713,1.713c0,0.946-0.767,1.714-1.713,1.714c-0.946,0-1.714-0.768-1.714-1.714
		C100.981,12.563,101.748,11.795,102.695,11.795z"/>
	<path style="fill:#F6E7AA;" d="M96.494,0c0.67,0,1.335,0.018,1.998,0.043C97.829,0.018,97.164,0,96.494,0z"/>
	<path style="fill:#F6E7AA;" d="M100.059,0.119c-0.245-0.015-0.491-0.023-0.736-0.036c0.538,0.028,1.077,0.055,1.611,0.095
		C100.643,0.156,100.352,0.136,100.059,0.119z"/>
	<path style="fill:#F6E7AA;" d="M90.604,0.323c-0.591,0.059-1.186,0.101-1.771,0.177c-0.103,0.013-0.205,0.021-0.307,0.035
		c-0.277,0.037-0.547,0.096-0.822,0.138C88.662,0.53,89.63,0.419,90.604,0.323z"/>
	<path style="fill:#F6E7AA;" d="M113.724,2.588c-0.57-0.174-1.132-0.367-1.71-0.524c-0.07-0.019-0.143-0.036-0.214-0.055
		c-0.177-0.047-0.359-0.081-0.537-0.127C112.093,2.097,112.91,2.34,113.724,2.588z"/>
	<path style="fill:#F6E7AA;" d="M86.021,0.955c-0.334,0.06-0.673,0.103-1.004,0.168c-0.205,0.041-0.407,0.085-0.611,0.127
		c-0.322,0.067-0.637,0.154-0.957,0.226C84.299,1.284,85.156,1.109,86.021,0.955z"/>
	<path style="fill:#F6E7AA;" d="M105.283,0.672c-0.276-0.041-0.546-0.1-0.823-0.137c-0.102-0.014-0.204-0.022-0.306-0.035
		c-0.585-0.076-1.181-0.119-1.771-0.177C103.356,0.419,104.324,0.53,105.283,0.672z"/>
	<path style="fill:#F6E7AA;" d="M109.538,1.476c-0.32-0.072-0.635-0.159-0.957-0.226c-0.204-0.042-0.406-0.086-0.611-0.127
		c-0.331-0.065-0.67-0.108-1.003-0.168C107.831,1.109,108.687,1.284,109.538,1.476z"/>
	<path style="fill:#F6E7AA;" d="M81.723,1.883c-0.179,0.046-0.361,0.08-0.539,0.127c-0.07,0.019-0.142,0.035-0.211,0.054
		c-0.578,0.157-1.14,0.35-1.71,0.524C80.077,2.34,80.893,2.097,81.723,1.883z"/>
	<path style="fill:#F6E7AA;" d="M96.494,0c-0.031,0-0.062,0.003-0.093,0.003c-0.665,0.002-1.327,0.02-1.985,0.045
		c0.659-0.025,1.32-0.042,1.985-0.044C96.432,0.004,96.462,0,96.494,0z"/>
	<path style="fill:#F6E7AA;" d="M92.927,0.119c-0.293,0.017-0.584,0.038-0.875,0.059c0.554-0.041,1.111-0.069,1.669-0.097
		C93.457,0.094,93.191,0.103,92.927,0.119z"/>
	<path style="fill:#F6E7AA;" d="M96.401,3.982C89.827,3.979,83.615,3.61,78.047,2.961c-0.196,0.064-0.398,0.115-0.593,0.182
		c-0.053,0.018-0.104,0.038-0.156,0.056c-1.146,0.395-2.276,0.822-3.387,1.285c-0.016,0.007-0.031,0.013-0.048,0.019
		c-2.301,0.961-4.521,2.063-6.65,3.294l-0.001,0.001c8.389,1.35,18.407,2.138,29.188,2.142V3.982z"/>
	<path style="fill:#F6D276;" d="M96.494,3.984c-0.032,0-0.062-0.002-0.093-0.002v5.956c0.031,0,0.062,0.001,0.093,0.001
		c10.816,0,20.867-0.789,29.28-2.143h0.001c0,0-0.002-0.001-0.002-0.001c-2.129-1.231-4.35-2.332-6.649-3.293
		c-0.017-0.007-0.034-0.014-0.051-0.021c-1.109-0.462-2.238-0.889-3.384-1.284c-0.053-0.018-0.104-0.038-0.157-0.056
		c-0.194-0.066-0.396-0.117-0.593-0.182C109.345,3.614,103.103,3.984,96.494,3.984z"/>
	<path style="fill:#342421;" d="M96.401,3.982c0.031,0,0.061,0.002,0.093,0.002c6.609,0,12.852-0.37,18.445-1.023
		c0.021-0.003,0.042-0.004,0.063-0.006H115c-0.418-0.138-0.854-0.237-1.276-0.366c-0.814-0.248-1.631-0.492-2.461-0.706
		c-0.113-0.029-0.222-0.067-0.336-0.096c-0.187-0.047-0.371-0.098-0.559-0.143c-0.273-0.066-0.557-0.106-0.831-0.168
		c-0.851-0.192-1.707-0.366-2.571-0.521c-0.203-0.036-0.4-0.088-0.604-0.123c-0.242-0.041-0.483-0.079-0.727-0.117
		c-0.116-0.018-0.236-0.025-0.353-0.043c-0.959-0.143-1.927-0.253-2.9-0.35c-0.289-0.029-0.57-0.08-0.861-0.104
		c-0.194-0.017-0.391-0.026-0.587-0.041c-0.534-0.04-1.073-0.067-1.611-0.095c-0.277-0.014-0.554-0.029-0.831-0.04
		C97.829,0.018,97.164,0,96.494,0c-0.031,0-0.062,0.004-0.093,0.004V3.982z"/>
	
		<line style="fill:none;stroke:#493633;stroke-width:0;stroke-linecap:round;stroke-linejoin:round;" x1="77.986" y1="2.955" x2="77.985" y2="2.955"/>
	<path style="fill:#493633;" d="M96.401,3.982V0.004c-0.665,0.002-1.326,0.019-1.985,0.044c-0.232,0.009-0.463,0.021-0.694,0.033
		c-0.558,0.028-1.115,0.056-1.669,0.097c-0.195,0.015-0.393,0.024-0.587,0.041c-0.29,0.024-0.572,0.076-0.861,0.104
		c-0.974,0.096-1.942,0.207-2.899,0.35c-0.117,0.017-0.237,0.024-0.354,0.042c-0.243,0.038-0.484,0.076-0.727,0.117
		c-0.203,0.034-0.4,0.086-0.604,0.123c-0.865,0.155-1.722,0.329-2.572,0.521c-0.274,0.062-0.558,0.102-0.83,0.168
		c-0.188,0.045-0.373,0.096-0.561,0.143c-0.113,0.029-0.222,0.067-0.335,0.097c-0.83,0.213-1.646,0.457-2.46,0.705
		c-0.423,0.129-0.859,0.228-1.277,0.366c0.02,0.002,0.041,0.004,0.062,0.006C83.615,3.61,89.827,3.979,96.401,3.982z"/>
	<circle style="fill:#493633;" cx="66.531" cy="13.509" r="1.714"/>
	<circle style="fill:#493633;" cx="78.585" cy="13.509" r="1.714"/>
	<circle style="fill:#493633;" cx="90.64" cy="13.509" r="1.714"/>
	<circle style="fill:#493633;" cx="102.695" cy="13.509" r="1.714"/>
	<circle style="fill:#493633;" cx="114.749" cy="13.509" r="1.714"/>
	<circle style="fill:#493633;" cx="126.804" cy="13.509" r="1.714"/>
	<path style="fill:#493633;" d="M63.239,173.368c2.856,6.122,9.478,19.618,12.341,19.618c3.69,0,10.328,0,20.821,0v-19.618H63.239z
		 M72.349,180.602c-1.282,0-2.321-1.039-2.321-2.321c0-1.282,1.039-2.321,2.321-2.321c1.281,0,2.321,1.039,2.321,2.321
		C74.67,179.563,73.63,180.602,72.349,180.602z M88.598,180.602c-1.282,0-2.321-1.039-2.321-2.321c0-1.282,1.039-2.321,2.321-2.321
		c1.282,0,2.321,1.039,2.321,2.321C90.919,179.563,89.88,180.602,88.598,180.602z"/>
	<path style="fill:#342421;" d="M96.401,192.986c0.032,0,0.06,0,0.093,0c10.492,0,17.13,0,20.82,0
		c2.862,0,9.484-13.496,12.342-19.618H96.401V192.986z M121.097,175.96c1.281,0,2.321,1.039,2.321,2.321
		c0,1.282-1.04,2.321-2.321,2.321c-1.282,0-2.322-1.039-2.322-2.321C118.775,176.999,119.815,175.96,121.097,175.96z
		 M104.847,175.96c1.282,0,2.321,1.039,2.321,2.321c0,1.282-1.039,2.321-2.321,2.321c-1.281,0-2.321-1.039-2.321-2.321
		C102.526,176.999,103.566,175.96,104.847,175.96z"/>
	<path style="fill:#FDBB47;" d="M96.401,167.446h-1.296H83.489h-3.117h-6.308h-3.233h-3.906h-3.717h-0.583
		c-1.636,0-2.961,1.326-2.961,2.961c0,1.635,1.325,2.961,2.961,2.961h0.614h33.162V167.446z"/>
	<path style="fill:#FAA338;" d="M122.003,167.446h-3.233h-6.308h-3.117H97.881h-1.48v5.922h33.255h0.706
		c1.636,0,2.961-1.326,2.961-2.961c0-1.636-1.325-2.961-2.961-2.961h-0.735h-3.717H122.003z"/>
	<circle style="fill:#FDBB47;" cx="72.349" cy="178.281" r="2.321"/>
	<circle style="fill:#FDBB47;" cx="88.598" cy="178.281" r="2.321"/>
	<circle style="fill:#FAA338;" cx="104.847" cy="178.281" r="2.321"/>
	<circle style="fill:#FAA338;" cx="121.097" cy="178.281" r="2.321"/>
	<path style="fill:#342421;" d="M103.09,157.221c1.992,0,3.607-1.616,3.607-3.608v-3.537c0-1.993-1.615-3.608-3.607-3.608h-0.067
		h-6.622v20.979h1.48v-10.225H103.09z"/>
	<path style="fill:#493633;" d="M89.778,146.467h-0.066c-1.993,0-3.608,1.616-3.608,3.608v3.537c0,1.993,1.615,3.608,3.608,3.608
		h5.394v10.225h1.296v-20.979H89.778z"/>
</g>
</svg>