<?xml version="1.0" encoding="iso-8859-1"?>
<!-- Uploaded to: SVG Repo, www.svgrepo.com, Generator: SVG Repo Mixer Tools -->
<svg height="800px" width="800px" version="1.1" id="Layer_1" xmlns="http://www.w3.org/2000/svg" xmlns:xlink="http://www.w3.org/1999/xlink" 
	 viewBox="0 0 512 512" xml:space="preserve">
<path style="fill:#808080;" d="M256.193,428.738c2.445,6.347,5.227,13.55,5.227,27.184s-2.782,20.836-5.227,27.196
	c-2.264,5.89-4.408,11.466-4.408,22.86c0,3.324-2.698,6.022-6.022,6.022s-6.022-2.698-6.022-6.022
	c0-13.634,2.77-20.836,5.215-27.196c2.276-5.89,4.42-11.466,4.42-22.86c0-11.394-2.144-16.97-4.42-22.859
	c-2.445-6.359-5.215-13.562-5.215-27.196c0-13.622,2.77-20.824,5.215-27.184c0.831-2.144,1.638-4.252,2.337-6.6
	c1.216-4.119,2.084-9.009,2.084-16.26c0-3.324,2.698-6.022,6.022-6.022c3.324,0,6.022,2.698,6.022,6.022
	c0,6.781-0.687,11.984-1.686,16.26c-1,4.336-2.313,7.732-3.541,10.924c-2.264,5.902-4.408,11.466-4.408,22.86
	C251.785,417.26,253.928,422.837,256.193,428.738z"/>
<path style="fill:#666666;" d="M261.42,355.823c0,6.781-0.687,11.984-1.686,16.26h-12.442c1.216-4.119,2.084-9.009,2.084-16.26
	c0-3.324,2.698-6.022,6.022-6.022C258.722,349.8,261.42,352.498,261.42,355.823z"/>
<polygon style="fill:#F95428;" points="287.893,359.436 224.107,359.436 239.523,333.517 256,305.791 272.477,333.517 "/>
<g>
	<polygon style="fill:#E54728;" points="263.227,317.952 256,305.791 239.523,333.517 224.107,359.436 238.56,359.436 
		253.977,333.517 	"/>
	<path style="fill:#E54728;" d="M256,305.791l-16.477,27.726c5.396,1.566,10.888,2.385,16.476,2.385s11.081-0.819,16.476-2.385
		L256,305.791z"/>
</g>
<path style="fill:#F95428;" d="M256,0c-69.64,0-126.091,56.451-126.091,126.091c0,30.388,10.755,71.916,28.653,109.072
	c2.999,6.215,6.191,12.309,9.563,18.211c22.727,39.65,53.705,70.483,87.875,70.483s65.159-30.833,87.875-70.495
	c3.372-5.902,6.576-11.996,9.575-18.211c17.886-37.156,28.641-78.673,28.641-109.06C382.091,56.451,325.64,0,256,0z"/>
<g>
	<path style="fill:#FFFFFF;" d="M343.584,95.879c-3.446,0-6.738-1.982-8.243-5.33c-10.319-22.939-29.996-40.3-53.982-47.63
		c-4.772-1.457-7.457-6.507-5.999-11.278c1.459-4.772,6.51-7.459,11.278-5.998c28.966,8.851,52.724,29.807,65.18,57.496
		c2.046,4.549,0.018,9.897-4.532,11.944C346.082,95.623,344.824,95.879,343.584,95.879z"/>
	<circle style="fill:#FFFFFF;" cx="256" cy="30.111" r="9.033"/>
</g>
<path style="fill:#E54728;" d="M166.042,126.091c0-63.504,46.946-116.033,108.025-124.797C268.166,0.447,262.135,0,256,0
	c-69.64,0-126.091,56.451-126.091,126.091S186.36,323.857,256,323.857c6.135,0,12.166-1.014,18.066-2.875
	C212.988,301.716,166.042,189.595,166.042,126.091z"/>
<g>
	<path style="fill:#A51C0A;" d="M256.518,222.023h-5.589c-6.57,0-12.447-3.4-15.719-9.096c-3.275-5.699-3.253-12.493,0.057-18.174
		l12.214-20.935c1.295-2.22,3.672-3.586,6.243-3.586c2.569,0,4.947,1.365,6.241,3.586l12.214,20.933
		c3.311,5.681,3.331,12.474,0.055,18.174C268.961,218.622,263.084,222.023,256.518,222.023z M253.724,191.799l-5.97,10.234
		c-0.97,1.663-0.331,3.136-0.012,3.693c0.319,0.554,1.267,1.844,3.188,1.844h5.589c1.917,0,2.867-1.291,3.186-1.848
		c0.32-0.556,0.959-2.029-0.011-3.692L253.724,191.799z"/>
	<path style="fill:#A51C0A;" d="M200.435,182.453c-13.582,0-27.16-5.115-37.5-15.35c-0.001,0-0.001-0.001-0.002-0.001
		c-10.116-10.022-15.641-23.331-15.556-37.474c0.045-10.53,6.182-19.614,16.018-23.695c9.893-4.107,21.181-1.916,28.757,5.578
		l45.784,45.321c1.371,1.357,2.143,3.207,2.143,5.136c0,1.93-0.772,3.779-2.143,5.136
		C227.597,177.336,214.014,182.453,200.435,182.453z M173.102,156.831c13.297,13.162,33.953,14.711,48.983,4.647l-40.1-39.695
		c-4.156-4.113-9.467-3.99-13.051-2.502c-4.427,1.837-7.083,5.732-7.102,10.418C161.768,139.937,165.772,149.568,173.102,156.831
		L173.102,156.831z"/>
	<path style="fill:#A51C0A;" d="M307.006,182.45c-13.577,0-27.156-5.115-37.494-15.347c-1.372-1.357-2.143-3.207-2.143-5.137
		s0.772-3.778,2.143-5.136l45.784-45.32c7.675-7.604,18.688-9.745,28.729-5.587c9.845,4.076,15.992,13.161,16.045,23.709
		c0.069,14.163-5.462,27.47-15.573,37.471C334.161,177.334,320.584,182.45,307.006,182.45z M285.363,161.478
		c15.026,10.059,35.675,8.512,48.968-4.647l0.001-0.001c7.327-7.247,11.334-16.88,11.284-27.125
		c-0.024-4.692-2.685-8.59-7.122-10.427c-3.583-1.484-8.884-1.602-13.029,2.503L285.363,161.478z"/>
	<path style="fill:#A51C0A;" d="M217.019,276.751c-3.659,0-6.624-2.965-6.624-6.624v-25.964c0-3.659,2.965-6.624,6.624-6.624
		s6.624,2.965,6.624,6.624v25.964C223.643,273.786,220.677,276.751,217.019,276.751z"/>
	<path style="fill:#A51C0A;" d="M241.487,281.245c-3.659,0-6.624-2.965-6.624-6.624v-25.964c0-3.659,2.965-6.624,6.624-6.624
		s6.624,2.965,6.624,6.624v25.964C248.111,278.279,245.146,281.245,241.487,281.245z"/>
	<path style="fill:#A51C0A;" d="M290.42,276.751c-3.658,0-6.624-2.965-6.624-6.624v-25.964c0-3.659,2.966-6.624,6.624-6.624
		c3.658,0,6.624,2.965,6.624,6.624v25.964C297.044,273.786,294.078,276.751,290.42,276.751z"/>
	<path style="fill:#A51C0A;" d="M265.952,281.245c-3.658,0-6.624-2.965-6.624-6.624v-25.964c0-3.659,2.966-6.624,6.624-6.624
		s6.624,2.965,6.624,6.624v25.964C272.576,278.279,269.61,281.245,265.952,281.245z"/>
	<path style="fill:#A51C0A;" d="M353.45,235.151c-2.999,6.215-6.203,12.309-9.575,18.211
		c-28.268,10.515-58.077,15.778-87.887,15.778s-59.619-5.263-87.863-15.766c-3.372-5.902-6.564-11.996-9.563-18.211l2.626,1.132
		c60.245,26.136,129.367,26.124,189.636-0.012L353.45,235.151z"/>
</g>
</svg>